<mxfile host="app.diagrams.net" modified="2022-07-06T20:51:38.699Z" agent="5.0 (Macintosh; Intel Mac OS X 10_15_7) AppleWebKit/537.36 (KHTML, like Gecko) Chrome/101.0.4951.41 Safari/537.36" etag="BeKJEHjPcPE2pYHW7iLH" version="20.0.1" type="github">
  <diagram id="ak4mycA0Pnnge27VPPGp" name="Page-1">
    <mxGraphModel dx="4196" dy="1821" grid="1" gridSize="10" guides="1" tooltips="1" connect="1" arrows="1" fold="1" page="1" pageScale="1" pageWidth="850" pageHeight="1100" math="0" shadow="0">
      <root>
        <mxCell id="0" />
        <mxCell id="1" parent="0" />
        <mxCell id="RorEUMieY2BfaAc4E58H-57" value="" style="whiteSpace=wrap;html=1;fontSize=11;fontColor=#3333FF;strokeColor=#FFD966;strokeWidth=3;" parent="1" vertex="1">
          <mxGeometry x="-840" y="10" width="1170" height="690" as="geometry" />
        </mxCell>
        <mxCell id="RorEUMieY2BfaAc4E58H-2" value="AWS Account 2" style="points=[[0,0],[0.25,0],[0.5,0],[0.75,0],[1,0],[1,0.25],[1,0.5],[1,0.75],[1,1],[0.75,1],[0.5,1],[0.25,1],[0,1],[0,0.75],[0,0.5],[0,0.25]];outlineConnect=0;gradientColor=none;html=1;whiteSpace=wrap;fontSize=12;fontStyle=0;container=1;pointerEvents=0;collapsible=0;recursiveResize=0;shape=mxgraph.aws4.group;grIcon=mxgraph.aws4.group_account;strokeColor=#7EA6E0;fillColor=none;verticalAlign=top;align=left;spacingLeft=30;fontColor=#CD2264;dashed=0;strokeWidth=2;" parent="1" vertex="1">
          <mxGeometry x="-630" y="520" width="130" height="130" as="geometry" />
        </mxCell>
        <mxCell id="RorEUMieY2BfaAc4E58H-13" value="" style="sketch=0;outlineConnect=0;fontColor=#232F3E;gradientColor=none;fillColor=#3F8624;strokeColor=none;dashed=0;verticalLabelPosition=bottom;verticalAlign=top;align=center;html=1;fontSize=12;fontStyle=0;aspect=fixed;pointerEvents=1;shape=mxgraph.aws4.bucket_with_objects;container=1;" parent="RorEUMieY2BfaAc4E58H-2" vertex="1">
          <mxGeometry x="20" y="35" width="75" height="78" as="geometry" />
        </mxCell>
        <mxCell id="RorEUMieY2BfaAc4E58H-3" value="AWS Account 3" style="points=[[0,0],[0.25,0],[0.5,0],[0.75,0],[1,0],[1,0.25],[1,0.5],[1,0.75],[1,1],[0.75,1],[0.5,1],[0.25,1],[0,1],[0,0.75],[0,0.5],[0,0.25]];outlineConnect=0;gradientColor=none;html=1;whiteSpace=wrap;fontSize=12;fontStyle=0;container=1;pointerEvents=0;collapsible=0;recursiveResize=0;shape=mxgraph.aws4.group;grIcon=mxgraph.aws4.group_account;strokeColor=#0000CC;fillColor=none;verticalAlign=top;align=left;spacingLeft=30;fontColor=#CD2264;dashed=0;strokeWidth=2;" parent="1" vertex="1">
          <mxGeometry x="-460" y="520" width="130" height="130" as="geometry" />
        </mxCell>
        <mxCell id="RorEUMieY2BfaAc4E58H-30" value="" style="sketch=0;outlineConnect=0;fontColor=#232F3E;gradientColor=none;fillColor=#3F8624;strokeColor=none;dashed=0;verticalLabelPosition=bottom;verticalAlign=top;align=center;html=1;fontSize=12;fontStyle=0;aspect=fixed;pointerEvents=1;shape=mxgraph.aws4.bucket_with_objects;container=1;" parent="RorEUMieY2BfaAc4E58H-3" vertex="1">
          <mxGeometry x="27.5" y="26" width="75" height="78" as="geometry" />
        </mxCell>
        <mxCell id="RorEUMieY2BfaAc4E58H-4" value="Zoomed in AWS Account (What they all will look like)&lt;br&gt;" style="points=[[0,0],[0.25,0],[0.5,0],[0.75,0],[1,0],[1,0.25],[1,0.5],[1,0.75],[1,1],[0.75,1],[0.5,1],[0.25,1],[0,1],[0,0.75],[0,0.5],[0,0.25]];outlineConnect=0;gradientColor=none;html=1;whiteSpace=wrap;fontSize=12;fontStyle=0;container=1;pointerEvents=0;collapsible=0;recursiveResize=0;shape=mxgraph.aws4.group;grIcon=mxgraph.aws4.group_account;strokeColor=#CC0066;fillColor=none;verticalAlign=top;align=left;spacingLeft=30;fontColor=#CD2264;dashed=0;strokeWidth=2;" parent="1" vertex="1">
          <mxGeometry x="-630" y="120" width="377.5" height="385" as="geometry" />
        </mxCell>
        <mxCell id="RorEUMieY2BfaAc4E58H-38" style="edgeStyle=orthogonalEdgeStyle;rounded=0;orthogonalLoop=1;jettySize=auto;html=1;entryX=0;entryY=0.5;entryDx=0;entryDy=0;entryPerimeter=0;fontSize=17;fontColor=#3333FF;" parent="RorEUMieY2BfaAc4E58H-4" source="RorEUMieY2BfaAc4E58H-29" target="RorEUMieY2BfaAc4E58H-35" edge="1">
          <mxGeometry relative="1" as="geometry">
            <Array as="points">
              <mxPoint x="64" y="80" />
            </Array>
          </mxGeometry>
        </mxCell>
        <mxCell id="RorEUMieY2BfaAc4E58H-41" value="S3: ObjectCreated" style="edgeLabel;html=1;align=center;verticalAlign=middle;resizable=0;points=[];fontSize=11;fontColor=#3333FF;" parent="RorEUMieY2BfaAc4E58H-38" vertex="1" connectable="0">
          <mxGeometry x="0.0826" y="1" relative="1" as="geometry">
            <mxPoint as="offset" />
          </mxGeometry>
        </mxCell>
        <mxCell id="RorEUMieY2BfaAc4E58H-56" style="edgeStyle=orthogonalEdgeStyle;rounded=0;orthogonalLoop=1;jettySize=auto;html=1;entryX=0.462;entryY=0.821;entryDx=0;entryDy=0;entryPerimeter=0;fontSize=11;fontColor=#3333FF;" parent="RorEUMieY2BfaAc4E58H-4" source="RorEUMieY2BfaAc4E58H-29" target="RorEUMieY2BfaAc4E58H-17" edge="1">
          <mxGeometry relative="1" as="geometry">
            <Array as="points">
              <mxPoint x="64" y="324" />
            </Array>
          </mxGeometry>
        </mxCell>
        <mxCell id="RorEUMieY2BfaAc4E58H-29" value="File Upload Bucket(s)" style="sketch=0;outlineConnect=0;fontColor=#232F3E;gradientColor=none;fillColor=#3F8624;strokeColor=none;dashed=0;verticalLabelPosition=bottom;verticalAlign=top;align=center;html=1;fontSize=12;fontStyle=0;aspect=fixed;pointerEvents=1;shape=mxgraph.aws4.bucket_with_objects;container=1;" parent="RorEUMieY2BfaAc4E58H-4" vertex="1">
          <mxGeometry x="40" y="147.78" width="47.83" height="49.75" as="geometry" />
        </mxCell>
        <mxCell id="RorEUMieY2BfaAc4E58H-17" value="Quarantine Bucket" style="sketch=0;outlineConnect=0;fontColor=#232F3E;gradientColor=none;fillColor=#3F8624;strokeColor=none;dashed=0;verticalLabelPosition=bottom;verticalAlign=top;align=center;html=1;fontSize=12;fontStyle=0;aspect=fixed;pointerEvents=1;shape=mxgraph.aws4.s3_object_lambda;" parent="RorEUMieY2BfaAc4E58H-4" vertex="1">
          <mxGeometry x="133.5" y="260" width="53" height="78" as="geometry" />
        </mxCell>
        <mxCell id="RorEUMieY2BfaAc4E58H-35" value="Trend Bucket Listener&amp;nbsp;" style="sketch=0;points=[[0,0,0],[0.25,0,0],[0.5,0,0],[0.75,0,0],[1,0,0],[0,1,0],[0.25,1,0],[0.5,1,0],[0.75,1,0],[1,1,0],[0,0.25,0],[0,0.5,0],[0,0.75,0],[1,0.25,0],[1,0.5,0],[1,0.75,0]];outlineConnect=0;fontColor=#232F3E;gradientColor=#F78E04;gradientDirection=north;fillColor=#D05C17;strokeColor=#ffffff;dashed=0;verticalLabelPosition=bottom;verticalAlign=top;align=center;html=1;fontSize=12;fontStyle=0;aspect=fixed;shape=mxgraph.aws4.resourceIcon;resIcon=mxgraph.aws4.lambda;" parent="RorEUMieY2BfaAc4E58H-4" vertex="1">
          <mxGeometry x="140" y="60" width="40" height="40" as="geometry" />
        </mxCell>
        <mxCell id="RorEUMieY2BfaAc4E58H-47" style="edgeStyle=orthogonalEdgeStyle;rounded=0;orthogonalLoop=1;jettySize=auto;html=1;entryX=1;entryY=0.5;entryDx=0;entryDy=0;entryPerimeter=0;fontSize=11;fontColor=#3333FF;" parent="RorEUMieY2BfaAc4E58H-4" source="RorEUMieY2BfaAc4E58H-44" target="RorEUMieY2BfaAc4E58H-46" edge="1">
          <mxGeometry relative="1" as="geometry" />
        </mxCell>
        <mxCell id="RorEUMieY2BfaAc4E58H-44" value="Scan Results" style="sketch=0;points=[[0,0,0],[0.25,0,0],[0.5,0,0],[0.75,0,0],[1,0,0],[0,1,0],[0.25,1,0],[0.5,1,0],[0.75,1,0],[1,1,0],[0,0.25,0],[0,0.5,0],[0,0.75,0],[1,0.25,0],[1,0.5,0],[1,0.75,0]];outlineConnect=0;fontColor=#232F3E;gradientColor=#FF4F8B;gradientDirection=north;fillColor=#BC1356;strokeColor=#ffffff;dashed=0;verticalLabelPosition=bottom;verticalAlign=top;align=center;html=1;fontSize=12;fontStyle=0;aspect=fixed;shape=mxgraph.aws4.resourceIcon;resIcon=mxgraph.aws4.sns;" parent="RorEUMieY2BfaAc4E58H-4" vertex="1">
          <mxGeometry x="260" y="147.78" width="50" height="50" as="geometry" />
        </mxCell>
        <mxCell id="RorEUMieY2BfaAc4E58H-48" style="edgeStyle=orthogonalEdgeStyle;rounded=0;orthogonalLoop=1;jettySize=auto;html=1;fontSize=11;fontColor=#3333FF;" parent="RorEUMieY2BfaAc4E58H-4" source="RorEUMieY2BfaAc4E58H-46" target="RorEUMieY2BfaAc4E58H-29" edge="1">
          <mxGeometry relative="1" as="geometry" />
        </mxCell>
        <mxCell id="RorEUMieY2BfaAc4E58H-46" value="Trend Bucket Listener&amp;nbsp;" style="sketch=0;points=[[0,0,0],[0.25,0,0],[0.5,0,0],[0.75,0,0],[1,0,0],[0,1,0],[0.25,1,0],[0.5,1,0],[0.75,1,0],[1,1,0],[0,0.25,0],[0,0.5,0],[0,0.75,0],[1,0.25,0],[1,0.5,0],[1,0.75,0]];outlineConnect=0;fontColor=#232F3E;gradientColor=#F78E04;gradientDirection=north;fillColor=#D05C17;strokeColor=#ffffff;dashed=0;verticalLabelPosition=bottom;verticalAlign=top;align=center;html=1;fontSize=12;fontStyle=0;aspect=fixed;shape=mxgraph.aws4.resourceIcon;resIcon=mxgraph.aws4.lambda;" parent="RorEUMieY2BfaAc4E58H-4" vertex="1">
          <mxGeometry x="165" y="152.66" width="40" height="40" as="geometry" />
        </mxCell>
        <mxCell id="RorEUMieY2BfaAc4E58H-11" value="&lt;b&gt;&lt;font style=&quot;font-size: 22px;&quot;&gt;Strategy 1&lt;/font&gt;&lt;/b&gt;" style="text;html=1;align=center;verticalAlign=middle;resizable=0;points=[];autosize=1;strokeColor=none;fillColor=none;" parent="1" vertex="1">
          <mxGeometry x="-700" y="40" width="120" height="20" as="geometry" />
        </mxCell>
        <mxCell id="RorEUMieY2BfaAc4E58H-12" value="&lt;font style=&quot;font-size: 14px;&quot;&gt;Every AWS Account use&#39;s their own S3 bucket organization.&lt;br&gt;&amp;nbsp;s3:ObjectCreated:* event gets sent to the Security Team SQS Que with Pre-Signed URL&amp;nbsp;&lt;br&gt;If File is Malicious then Scanner will Remove/Lock that File - So each team will have to give scanner X time&amp;nbsp;&amp;nbsp;&lt;/font&gt;" style="text;html=1;align=center;verticalAlign=middle;resizable=0;points=[];autosize=1;strokeColor=none;fillColor=none;fontSize=22;" parent="1" vertex="1">
          <mxGeometry x="-548.5" y="16.5" width="690" height="90" as="geometry" />
        </mxCell>
        <mxCell id="RorEUMieY2BfaAc4E58H-19" value="&lt;font color=&quot;#3333ff&quot; style=&quot;font-size: 17px;&quot;&gt;Security Account&lt;/font&gt;" style="points=[[0,0],[0.25,0],[0.5,0],[0.75,0],[1,0],[1,0.25],[1,0.5],[1,0.75],[1,1],[0.75,1],[0.5,1],[0.25,1],[0,1],[0,0.75],[0,0.5],[0,0.25]];outlineConnect=0;gradientColor=none;html=1;whiteSpace=wrap;fontSize=12;fontStyle=0;container=1;pointerEvents=0;collapsible=0;recursiveResize=0;shape=mxgraph.aws4.group;grIcon=mxgraph.aws4.group_account;strokeColor=#FF0000;fillColor=none;verticalAlign=top;align=left;spacingLeft=30;fontColor=#CD2264;dashed=0;strokeWidth=3;" parent="1" vertex="1">
          <mxGeometry x="-200" y="120" width="200" height="290" as="geometry" />
        </mxCell>
        <mxCell id="RorEUMieY2BfaAc4E58H-24" style="edgeStyle=orthogonalEdgeStyle;rounded=0;orthogonalLoop=1;jettySize=auto;html=1;entryX=0.5;entryY=0;entryDx=0;entryDy=0;entryPerimeter=0;fontSize=17;fontColor=#3333FF;" parent="RorEUMieY2BfaAc4E58H-19" source="RorEUMieY2BfaAc4E58H-16" target="RorEUMieY2BfaAc4E58H-18" edge="1">
          <mxGeometry relative="1" as="geometry" />
        </mxCell>
        <mxCell id="RorEUMieY2BfaAc4E58H-18" value="Trend Scanner Lambda" style="sketch=0;points=[[0,0,0],[0.25,0,0],[0.5,0,0],[0.75,0,0],[1,0,0],[0,1,0],[0.25,1,0],[0.5,1,0],[0.75,1,0],[1,1,0],[0,0.25,0],[0,0.5,0],[0,0.75,0],[1,0.25,0],[1,0.5,0],[1,0.75,0]];outlineConnect=0;fontColor=#232F3E;gradientColor=#F78E04;gradientDirection=north;fillColor=#D05C17;strokeColor=#ffffff;dashed=0;verticalLabelPosition=bottom;verticalAlign=top;align=center;html=1;fontSize=12;fontStyle=0;aspect=fixed;shape=mxgraph.aws4.resourceIcon;resIcon=mxgraph.aws4.lambda;" parent="RorEUMieY2BfaAc4E58H-19" vertex="1">
          <mxGeometry x="70" y="160" width="54" height="54" as="geometry" />
        </mxCell>
        <mxCell id="RorEUMieY2BfaAc4E58H-16" value="Trend Scanner Queue" style="sketch=0;points=[[0,0,0],[0.25,0,0],[0.5,0,0],[0.75,0,0],[1,0,0],[0,1,0],[0.25,1,0],[0.5,1,0],[0.75,1,0],[1,1,0],[0,0.25,0],[0,0.5,0],[0,0.75,0],[1,0.25,0],[1,0.5,0],[1,0.75,0]];outlineConnect=0;fontColor=#232F3E;gradientColor=#FF4F8B;gradientDirection=north;fillColor=#BC1356;strokeColor=#ffffff;dashed=0;verticalLabelPosition=top;verticalAlign=bottom;align=center;html=1;fontSize=12;fontStyle=0;aspect=fixed;shape=mxgraph.aws4.resourceIcon;resIcon=mxgraph.aws4.sqs;labelPosition=center;" parent="RorEUMieY2BfaAc4E58H-19" vertex="1">
          <mxGeometry x="72.5" y="54.25" width="51.5" height="51.5" as="geometry" />
        </mxCell>
        <mxCell id="RorEUMieY2BfaAc4E58H-33" style="edgeStyle=orthogonalEdgeStyle;rounded=0;orthogonalLoop=1;jettySize=auto;html=1;fontSize=17;fontColor=#3333FF;" parent="1" source="RorEUMieY2BfaAc4E58H-25" target="RorEUMieY2BfaAc4E58H-32" edge="1">
          <mxGeometry relative="1" as="geometry" />
        </mxCell>
        <mxCell id="RorEUMieY2BfaAc4E58H-25" value="Investor File Upload" style="sketch=0;aspect=fixed;html=1;points=[];align=center;image;fontSize=12;image=img/lib/mscae/CustomDomain.svg;fontColor=#3333FF;strokeColor=#FF0000;strokeWidth=3;" parent="1" vertex="1">
          <mxGeometry x="-800" y="159.99999999999994" width="73.33" height="61.6" as="geometry" />
        </mxCell>
        <mxCell id="RorEUMieY2BfaAc4E58H-34" style="edgeStyle=orthogonalEdgeStyle;rounded=0;orthogonalLoop=1;jettySize=auto;html=1;fontSize=17;fontColor=#3333FF;" parent="1" source="RorEUMieY2BfaAc4E58H-32" target="RorEUMieY2BfaAc4E58H-29" edge="1">
          <mxGeometry relative="1" as="geometry" />
        </mxCell>
        <mxCell id="RorEUMieY2BfaAc4E58H-32" value="S3 Pre-Signed URL" style="shape=image;html=1;verticalAlign=top;verticalLabelPosition=bottom;labelBackgroundColor=#ffffff;imageAspect=0;aspect=fixed;image=https://cdn4.iconfinder.com/data/icons/online-marketing-hand-drawn-vol-3/52/link__url__network__chain__linked__website__content-128.png;fontSize=17;fontColor=#3333FF;strokeColor=#FF0000;strokeWidth=3;" parent="1" vertex="1">
          <mxGeometry x="-785.99" y="270" width="45.3" height="45.3" as="geometry" />
        </mxCell>
        <mxCell id="RorEUMieY2BfaAc4E58H-43" style="edgeStyle=orthogonalEdgeStyle;rounded=0;orthogonalLoop=1;jettySize=auto;html=1;entryX=0;entryY=0.5;entryDx=0;entryDy=0;entryPerimeter=0;fontSize=11;fontColor=#3333FF;" parent="1" source="RorEUMieY2BfaAc4E58H-35" target="RorEUMieY2BfaAc4E58H-16" edge="1">
          <mxGeometry relative="1" as="geometry" />
        </mxCell>
        <mxCell id="RorEUMieY2BfaAc4E58H-45" style="edgeStyle=orthogonalEdgeStyle;rounded=0;orthogonalLoop=1;jettySize=auto;html=1;entryX=1;entryY=0.5;entryDx=0;entryDy=0;entryPerimeter=0;fontSize=11;fontColor=#3333FF;" parent="1" source="RorEUMieY2BfaAc4E58H-18" target="RorEUMieY2BfaAc4E58H-44" edge="1">
          <mxGeometry relative="1" as="geometry" />
        </mxCell>
        <mxCell id="RorEUMieY2BfaAc4E58H-53" style="edgeStyle=orthogonalEdgeStyle;rounded=0;orthogonalLoop=1;jettySize=auto;html=1;entryX=1;entryY=0.75;entryDx=0;entryDy=0;entryPerimeter=0;fontSize=11;fontColor=#3333FF;" parent="1" source="RorEUMieY2BfaAc4E58H-50" target="RorEUMieY2BfaAc4E58H-18" edge="1">
          <mxGeometry relative="1" as="geometry">
            <Array as="points">
              <mxPoint x="-30" y="321" />
            </Array>
          </mxGeometry>
        </mxCell>
        <mxCell id="RorEUMieY2BfaAc4E58H-54" value="Scan Results" style="edgeLabel;html=1;align=center;verticalAlign=middle;resizable=0;points=[];fontSize=11;fontColor=#3333FF;" parent="RorEUMieY2BfaAc4E58H-53" vertex="1" connectable="0">
          <mxGeometry x="-0.0264" y="-2" relative="1" as="geometry">
            <mxPoint x="1" as="offset" />
          </mxGeometry>
        </mxCell>
        <mxCell id="RorEUMieY2BfaAc4E58H-50" value="" style="shape=image;verticalLabelPosition=bottom;labelBackgroundColor=default;verticalAlign=top;aspect=fixed;imageAspect=0;image=data:image/png,iVBORw0KGgoAAAANSUhEUgAAANMAAADLCAYAAAD0gqYvAAAAAXNSR0IArs4c6QAAAGJlWElmTU0AKgAAAAgAAYdpAAQAAAABAAAAGgAAAAAABJKGAAcAAAASAAAAUKABAAMAAAABAAEAAKACAAQAAAABAAAA06ADAAQAAAABAAAAywAAAABBU0NJSQAAAFNjcmVlbnNob3RfRHV2AAAB1mlUWHRYTUw6Y29tLmFkb2JlLnhtcAAAAAAAPHg6eG1wbWV0YSB4bWxuczp4PSJhZG9iZTpuczptZXRhLyIgeDp4bXB0az0iWE1QIENvcmUgNi4wLjAiPgogICA8cmRmOlJERiB4bWxuczpyZGY9Imh0dHA6Ly93d3cudzMub3JnLzE5OTkvMDIvMjItcmRmLXN5bnRheC1ucyMiPgogICAgICA8cmRmOkRlc2NyaXB0aW9uIHJkZjphYm91dD0iIgogICAgICAgICAgICB4bWxuczpleGlmPSJodHRwOi8vbnMuYWRvYmUuY29tL2V4aWYvMS4wLyI+CiAgICAgICAgIDxleGlmOlBpeGVsWURpbWVuc2lvbj4yMDM8L2V4aWY6UGl4ZWxZRGltZW5zaW9uPgogICAgICAgICA8ZXhpZjpQaXhlbFhEaW1lbnNpb24+MjExPC9leGlmOlBpeGVsWERpbWVuc2lvbj4KICAgICAgICAgPGV4aWY6VXNlckNvbW1lbnQ+U2NyZWVuc2hvdDwvZXhpZjpVc2VyQ29tbWVudD4KICAgICAgPC9yZGY6RGVzY3JpcHRpb24+CiAgIDwvcmRmOlJERj4KPC94OnhtcG1ldGE+Cp3vHMQAACc5SURBVHgB7Z0HuBRFEscLs6AYQEyAgIoBcyIZUM+MORwqKqZT71PRw3zmHMBwBgznmRUTJsw5AKYzK4IZUYJwKioGDLe/xlp6583Mhjdv38xu1fft2wnd1d3V/e8K3b2vxR85EiOTgEmg0RKYo9EcjIFJwCTgJGBgsoFgEkhIAgamhARpbEwCBiYbAyaBhCRgYEpIkMbGJGBgsjFgEkhIAgamhARpbEwCBiYbAyaBhCRgYEpIkMbGJGBgsjFgEkhIAgamhARpbEwCBiYbAyaBhCRgYEpIkMbGJGBgsjFgEkhIAnMlxEdGjhwpM2fOjGQ3//zzS/fu3eXVV1+Vs846S3bccUfZe++95eeff5YDDzxQ2rZtKxdeeGFk/kpefPDBB/Lee+/J+++/LwsuuKCsvPLKsvrqq8siiyxSCbuazPPdd9/JW2+95WQ0efJkWX755Z2cunXrlpn23nzzzXL33XfL8ccfL+utt16z1TsxMJ155pnyyy+/RDakdevWcs8998hzzz0n06dPl4ceesiB6bfffpMvvvhCvvnmm8i85b4A1Oeee64888wzBVkR+JxzzimnnHKK9O7dO/8OsI0ZM0ZWXXVVWW655fLPa/0CEB177LEF/fbkk0+6Zq+11lpy2mmnScuWLVMvhgcffNCNKcaWgqk5+jQxMKnE0ThooSABJqh///4yzzzzyEYbbRRMktj96aefLqNGjXLA+etf/yorrriiMAMzUF577TU5+eSTnRZES0FPP/203HXXXbLXXnvVDZg+/fRTOfLII137V1ppJdlyyy2lTZs28uGHH8qtt97q5DRo0CAZOnSoS5PmP//85z/dxLnbbrvlq9kcfZo4mPbZZx9nUuVbFbho166dHHrooYGnyd2iHQESdNVVV0nnzp3zzBkwgwcPlocffliGDx/uTL78yzq7UA207rrrOi2uze/Zs6dsscUWsvvuu8u4cePkyy+/lKWWWkpfp/J7lVVWET7NTYmDqViD3nnnHbnpppukV69esv3220cm5zQ9oOCDNunUqZP06NFDNt10U1lggQUi8zGzQmhHH0iaYcCAATLffPPJoosu6kzLc845x83GvMf0VHMPDQrNmDFDnnrqKXnllVdk7NixzqfAlOjTp0/BpHHHHXfIf//7X9lvv/3k5Zdflueff975gzfccIPj88knnwhpGKDwRFuineHjEz4kAx0f9KOPPpIOHTo4jYk5PGzYMJd+q622ymfBz6F+pEf74pduuOGGRQfXG2+84Xgg0yAx4aGVPv74Y1dX/z3mE+bz6NGjpVWrVq4fN9lkkwaAo42ke+mll5zcaMcaa6whu+66q7NM4Ml7JrbtttuuwOzm3Z133un8a+S5wgoruGue0f9zzz23jBgxQtCuF198sRsfjBMsi/bt20tUn/KO8pDRTjvtRDF5+v333+Wkk06SX3/9VU499dRQ6yqfOOKi6mCaNGmSEwxBgDgwXX755c7H0npPmTLFDdL7779frrzySidQfed/K4B+/PFH11nBwUqgQzWj1kXzT5s2TfjMMcesICda7vDDDxeAoPTVV185gGMWovkAJvTmm2+6dsFzwoQJ7hn+GQSw6CCfaA82PgMCgENMICeeeKIbHO5B7g/lMZngz7399tuyxBJLiIKJsvbdd98Cn4ey8Q0pb4MNNlA2Db4ZoARnHnjgAdl8880b+EZbb711gzwAFhPZJyaYW265Ra699to8oPBZjzjiCDcZaFptx6OPPiqXXHKJCwIBVgJSmNu+D0seJl3eATTqSru4nzhxovOxlS999O6777p3tIP+JZ2S36frrLOOe8eEiTvSokULTeZk/OKLLzr5hrkp+YQxF6kMjTN7EKzAtxoyZIg8/vjjcv3117tZh8FHcCGKEIR2zBlnnCGHHHKIM+kARPC3YxiYaIFddtnFsWNm456ZDcIBJx8zNQB+4oknHICY4ehcZrIg8fyggw5yMysDlTIvvfRSl6xfv35u8PJcAY2WZjaE/vOf/7hOBYTnnXeeMPB4jyYESD6hwQA6g2mzzTZzPh+OOM8gwDR+/Hg/S8E1Ji/lIM+dd97Zmb8MJrRbGJEOeUCUgWYAtGgK6gB40J4QPitadbHFFhMmRfoPACE3gk30ZaVEfiZIeGBJdOnSpYBVXJ9iDeAX/vDDD24i8TM+9thj7nbbbbf1H5d1nTiYcAL79u3b4IPpUyrde++9Limdh2mApsBMQKVDzPRxRLRu4403dkkwq+jQAw44QJht//WvfxXMbFF8GOAMLuiiiy5y5h0zGdE+/C4GIhoDDejTNttsI8gAM3Leeed1r4455hiXhyUAomN8mBnpWIg6QoAVov7MonPNNZeb7RmcDEyfmF2ZdTF/icih6dGSaHvkD6FJokjbQWAIMDCB4cjvsMMObgJ65JFHCiYfAAFYAB5lMGktvPDCLhy99NJLu7qgaZCb+qzIiQFM/+HTMLmRFqBVSkxsTGKMB+Tra5dSeKpsFDzkwcTTMcUkUynNVWnGpsrHTK5+DyF07OogaTidjgkjBjrm0mGHHSYIDVBg0jBo7rvvPjerAkzWnaJI69CxY0en+v10DGzMSdIABI0KkoaQsk90NsCAMHU+//xzN/t///33bgDy/KeffnJ1w/SDgn4MPsL6669fYPbSHgjf5Nlnn3XX+ge5QZpGnwe/V1ttNae1CZEDltdff10wHWnTBRdc4PwigA0YSANR12Cf6LIG5elaI1qIj0/I8sYbb/QflX299tprl53Hz4CJjB9LtE+jmUyKjA1MaSaISilxMOFks0BaKWETK6m5pff+N2ZHFJg03UILLeQcXpxeQMpgOf/8892gZrbHoY8iFnwhZv4wUjCRzgeT+lB+Hux/ykOTRNHUqVPdK5x6JoMgLbnkkgWP8FUgAMiMH0ZoimIE2Km/tgFg3H777S5Y8sILLzi/DrNKy8OU5BNGmMTqbwbNr7D0lTwLk285fJgI8cFoD74Wi9OqpeJ8+FLKSBxMpRQalwbzSAm/IUj4Cqh3VurLIQYNWgNTBvseLYF2iIoMLr744o496cJIn2u6sDQ8A0ADBw50rzF10DCEmjGv8Gt0VlewYM9jOgadYNWUWo6afbSJtTSfmDjQ3pXMsuTB5yOgwoBjAgJM+CL4KwcffHCDKKn2CWnQbBBRxlJJfS0/vfqR/rOkrglqoHnRxqyxYeIxgdE3jaHUgYmZh4HCYMVMoIPKoeuuu05uu+025zeoM+7nX2aZZfK3+CQ+YTsrIWQI+56O9dPS+aq54kxF8hNChpZddlnnhLubP//45QH2TjktiMZlDWzPPffMJ0UWQdOKGZUgDZOBmpH5DEUuMMXw7SC0UNj2KjQLYFJQYwIBJvy9uPKwBiC0lILMPcj9wZSibUyG/uI+GiJImMNJkC9j5cfkwNY1lhQAEPXSkLumqeR7jkoyNXWeNddc0xWB36M2OA/oIMKfNPzbb78NrQaCYrATbdIAgiaEF1ElCFWvJoMGCnDqlTBVATWCxpH2iSAGGgTtokEE/71/TUQSwo9BYygRWlffRp/tscce7pKoHjsPsOWJ/OH7UQ+fdO8c4XU/0EAZZ599tpMRgZMwwgdDxsiJyCga2ifMUl3U1cio+oKXXXZZXvuQB58N4NMnzPDIjSAB9aUePpH3mmuuyTv79AFEO31ZMHEA3MZQWJ8qP/qdZQP6UF0JtFVjqXBqbiy3hPKjUXB4AQ+NxFEGCJgeELOazoDBIvFlWBAmooRJh1/FMxxnwIIAITbZKqnJSKfuv//+bmsNfhb+FVFAzAEWH7t27eqcczoes4CwfTHSvWJoF0LwRCcx2Qihw8M3cRiQaCa28wA2PhDpiEIxQSgxYI8++mhnrrD2gxZHswEETEdAzC6GKGKnCiYcazK0lbaxRvPZZ585uZOPwa6gpW7IAJABHjQ3wGHxF+AQXFDgYUIRucTnov/gwWKvAgYZQ0T68BHpE/oU2aDN6KegbFyGMv5E9amyQJ6AFlkxKSaxg6LqmglzBgp+ayP5xrRg9ieqhVDpcIDEAGFw6xqNn8e/xiHH7ic9MxydCg86DXCx2OpHzFD1OJ+UxWBW04wBQtQPE4e8ygPTDm3lO9nqePv14BofhHUmvuk4OpAgC21QDayyID0DjUVQ3hOmZVCynqORMeqoxHsiUtQTcNJOyqC+tDHORKYNRNYAEWAAhNSNCQy5MbjRJH67jjvuOBc6Rxsz4FnuIC/1YPlB01JXtCJBDSYx0gEkZH/FFVfkAYrJiGyYGCCACV/C72xr8smXkf+ca18m+i6qT/U9wAXIkIbL9V2l3y1yZsFs26NSLk2cD6cW06SYSRVWja+//toNEDoOvwU+UYRvhMmDGaAmoKbF9qYeBBzCOk/TxX0z0DGLGOQ68Pz0mGtE5+hotKlPaAPKP+qoo/I7IPz3BC0IdlC/uDb6efSadjOJUD98Sg1u6Puwb9ICFIAQ1hbNg9yYPEgXVy/kQl9Rf98/VT6Vfkf1KeUBWiYDJq+4iafUslNp5gUr35iG4lyHOdjBMrinE6MiYAyYxm74hHcUf8rH6canQDOwNw6twTMcZY2Ssa8sjNDmqr3C3sc9o93lHj2Ja4dfFnIrtoRBeiY7PklTsE8xq1mGQEMCJCyUxowvv76Z0Ex+hWv5mpn+hBNOyPuGflvRhuwICZo/fhq7Li4BAjvqizIBXX311Y2eJLVUA5NKIkXfRCHZi4fphQbA2eeoRLE1rRQ1IbVVIfqJb4k5i69XiesQ1TgDU5Rk7LlJoEwJVD2aV2b9LLlJIDMSMDBlpqusommXgIEp7T1k9cuMBAxMmekqq2jaJWBgSnsPWf0yIwEDU2a6yiqadgkYmNLeQ1a/zEjAwJSZrrKKpl0CBqa095DVLzMSMDBlpqusommXgIEp7T1k9cuMBAxMmekqq2jaJWBgSnsPWf0yIwEDU2a6yiqadgkYmNLeQ1a/zEjAwJSZrrKKpl0CBqa095DVLzMSMDBlpqusommXgIEp7T1k9cuMBAxMmekqq2jaJWBgSnsPWf0yIwEDU2a6yiqadgkYmNLeQ1a/zEjAwJSZrrKKpl0CBqa095DVLzMSMDBlpqusommXgIEp7T1k9cuMBAxMmekqq2jaJWBgSnsPWf0yIwEDU2a6yiqadgkYmNLeQ1a/zEjAwJSZrrKKpl0CmfiftmkXYtL1+/zzCTJy9Og8W+596tChvXTI/UdzqHevwv9K7qez6+pKwP5zYHXlHVvayFGj5fMJE3L/FLoQPLGZci979exhoCompCq8NzBVQcjFilBN5INItU/HDh1cdu4h0ozP/Qd2aNToF923/jFQqSSa59vA1Dxyz5eKNvJBASAAkIInnzDiIqjNDFARgqrCYwNTFYQcVYQPJMDTu2fPkkEU5Bnk1W+3XYNJ7L6JJWBgamIBR7H3B39S2sTnCTgNUFHSb5rnFhpvGrnGcsXvUdMuKSBRIJE9BZDzw3ImpFH1JGBgqp6s8yVpAMGZdgmHtuEJQCEA6wc18hWwiyaRgIGpScQazdQ3xVSLRKeu7A0aClBB/npVZdwsV6kSMJ+pVElVkE61ApqI9SMlnidp3ilf/5syht1xp3ukwNKF3nKihT5Pu46XgIEpXj4VvWUgoxEUTGFMjh50ZNjjRJ8Bprg6NDWgE21MBpgZmBLuJN+Mg3VQK/CsmpqB+vgU3GFhgPKl07hrA1Pj5FeQ2wcSIGrMulEB4ya48esKe/w3BX4TFFcXLC0AkVA3+4OT2T7tg5MgBfVUskCFSqLybwNT5bIryNkU60YFBTTBja1LJStUA1MC8lS/xJl2Ca8bJVC9WBbUWTWUrUvFiqroSwNTUREVT6BaCR8pi+SvS+mCchbb0dx1NjA1sgf80HOWHXhdg/LXwxopmrrLbmBqZJfrTK6mUiPZNVt2PTflTw7NVpmMFmxgymjHJV1tX6saoCqTroGpMrm5XAw69Zd0Zm8Eu9RkVW2bmgplpCL2gypldpTudwvO3gxAf3Yvk20qklN/nSB0klDzlSCFUbwEDEzx8sm/ZZApkPIPcxcMQJz3sME2bdo0Ge39ypCfj+ueuehfmzZtgo/d/bhx44RPFDUmb9++fUPZ0g4+CiQS+ddhbQxlVKcPbTtRCR3v724guR6dKKaJigECIAGKMAKEgDGK4vKOGDEiKpt7HpfXz8gEgsZVQNHeNG+R8uveHNemmYpI3QcSg0mBVCSb0ypxmoX8gIVPUDuRLw5IxfIWq1tUucF8Tuvm2gwBKMA1UkZLvw72+xJBWXFvAYgwqfz5TP0HbvEdSgUS6YsBiTRQmBlYat6wdGHPZpVU+LfUdOTCvNMjIw5QgZ3ohZzr987MvJi+V60EkOL8hbFjx8rEiRPznHTmzz8ocoFmUu1Uzbztc/5Ry5Yt87Xr0qWLdOzYMX8fvABI6jemfSNvsO7VuDczL0LKCiRexwGJ98OHD5eZM2dyWRFNmjSponxkSjLvmDFj5JBDDomsi5p9TjvlfDoz9wpFZWAqlEeDOw0NN3jhPejfv79Mnjw5/2TKlCn561Iv2rVr55KWm7dVq1bCB2pMXvJ36tSJr1giADHs8/gTvLEMavilgSmic8vZo9bB/QLrrJ8xjmBXM4/RTkpoKP9en9frt4EpoucZKFClOxtw8ItF5ODftWvXvL/EPVSNvN26dZPWrVvPKrDMvwBI5VNm1ppObmAq0r2VzrwEFEqJmGngwa9GU+VV4IaV6Zdf6nUt7Poota2lpDMwFZFSpaYMA5bBGwco3odRY/N27txZpk+fntd48AsC6KOPPpJll102rHh7VqEEDEwRgkvClIkCixYZ9z7uHfnj3mPChREAeuyxx4RvJQDFZ/PNN9dHRb/VxCsW5SzKqMYS2DpTRIdqaBxQlbNYG8GuKo99kGiBPNOPPov7VlAFtZZ/z24I5KMLuXH86umdaaaI3ibwoFtoKjX1Ilg3yeOjjjqqJL6qhRQcqqkUiNxHEUDjw3LBH3/8EZWsbp+bZorpev1F1LRrJ4AwdOjQBi1RwPACEPj3DRLnHiiQ4jTZ4MGDw7Las5wETDPFDAPMuwuGXDRrg2fOrEm7jwBY4nYwxDTVvVITLyxdqZovLG+9PLONrkV6Wv0lTD7VVEWyZOb1jFGF/xM3MxVPaUVNMxXpGEw8fAT1n9hKo1uM0qap1O+JatLUIRfLjNEvSRBELXv1kLb/GCh8h1ExvmF56vGZgamEXgc0fDTCB7Ag/QZwzUHt2i0mm/TpU1LRAGnqkEtC0wKu8blP20EDc58jQtPYw+ISMDAVl1E+ha+JFEi81HWXfMKUXYzfZfcG2kiriDYCTAYklUjl3wamMmWngNLvNADJj9Jhkvn3ACVo1vlN1ndoLT4rfvmJ/9pdq5nn822QyB5YNK+xY6C5TLxS641WKocwB83UK0dis9NaNG+2LGruSrWO3zDMuThqmQu2RGkz00xxkrPfgIiXTobeFhvogKjjXbcJYIkj50PlAiwz/gyyxKW1d4USMM1UKI/M3+kuBhqigNDgggIlKgSuWovwuU8+T/+5XRdKwMBUKI/M3unuBQ0W+A1RcGC+EWSIMv/wlTTypxrM56dl+LzterYEDEyzZZHpK9/MUwAoIFiQhaZeGL7OpJrLLermAOeT8vL5++/terYEDEyzZZH5Kx3wapZhzgGUKLOOBvtA0kVd0mseA1Ppw8LWmUqXVepTYoaxe1wBQIVVO8267p5vQ8ue3fMh8ODuCNVk8FFeCtQ8A7toIAEDUwORZPeBP+ABAfeqYWhVcP0oCKJZaWZrMgUSIPV5Z1dCTVtzA1PTyrfq3Bn4mHl8gscxAA8UttmV52rycQ2puTjrzv4Wk4AdDiwmoQy+17NHAIuPTy6i5wUiMPegoNZSQIbx8PnZ9WwJmGaaLYuaufK1E+aZb6Jh9nXMfeJIgRSXxt41lIBF8xrKJPNPAJMCKBiQKNY4H0imlYpJq/C9galQHjVzh79ULqAMSI3rfgNT4+SX6txBDQVYoggNpu8BIXmNypOABSDKk1cmU/sahwao+abrSAoi/10mG9rMlTYwNXMHVKv4IKCC5ao2UtMw+N7ui0vAwFRcRjWVIggqA1Fy3WtgSk6WxqnOJWABiDofANb85CRgYEpOlsapziVgYKrzAWDNT04CBqbkZGmc6lwCBqY6HwDW/OQkYGBKTpbGqc4lYGCq8wFgzU9OAgam5GRpnOpcAgamOh8A1vzkJGBgSk6WxqnOJWBgqvMBYM1PTgIGpuRkaZzqXAIGpjofANb85CRgYEpOlsapziVgYKrzAWDNT04CBqbkZGmc6lwCBqY6HwDW/OQkYGBKTpbGqc4lYGCq8wFgzU9OAgam5GRpnOpcAgamOh8A1vzkJGBgSk6WxqnOJZAqMP3+++/y66+/Nvjw/I8//pBrrrlG3n//fddlI0eOlGeffbamum/atGlyxRVXyDfffNNk7Zo0aZLceuutMmzYsCYrw2f83XffyU033SRff/21/zjR65dfflmeeOKJRHlWwixV/1LmwgsvlIcffrhBO7bccks54IAD3AD44YcfZMUVV5QRI0bIjz/+KBtttFGD9Fl98NZbb8ndd98tq6++uvTu3TvxZsycOVP23XdfmXPOOWXTTTdNnH8YQ0B0/fXXy3rrrSeLLLJIWJJGPwNIH3/8sfzlL39pNK/GMEgVmGhI69at5ZRTTilo02KLLeY64rbbbpNFF1204F0t3Wy88caywgoryFJLLdUkzWLA/fLLL3LppZfKyiuv3CRl1DPT1IFp3nnnlTXWWCO0Tw4//HDZb7/9Qv9Dw5QpU9wgefXVV2XhhReWrbfeWvbaa69QPpgeZ599trzxxhtull533XXl6KOPlpYtW7r0r732mtxwww0yZswYB94ddthB+vXr596RFw36yiuvyG+//SZdu3aVk08+Wdq0aSMffPCBDBo0SA466CC5+eabBbONnx8+7bTTpF27dkXff/LJJzJw4EC58sorHaDIt+CCCwplvvjiizL33HNL//79Zbfddsu3C9P38ccfd6Zhnz593GQ0ceJEOeuss/JpuLjvvvscX66POeYYB9ohQ4Y4kxpwjR49WmbMmCGrrrqqHHbYYXlA77zzzrL99tvLk08+KRMmTHAWwfzzzw+bPGGaX3bZZTJq1ChXVyaE448/XhZffPF8Gr0gbVx5yK9bt26unzUP7UWmqk2vu+46Z8FgDtNmNG4aKFU+UzGB/O9//xPMvCD9/PPPcuSRR8p7770nf/vb35yJhGmByRRG5557rrz77rtuUB144IGC/4WvAjGgjzvuOGdCMqhWWWUV56thVkIAifT77LOP+/CfJFSTUg/qx8DaaaedZMcdd3T/rfyOO+5weYu9R2uQnwEHTZ48WR588EE3yA8++GBZYokl5KqrrnL3vL/llluc6bv22msLE82nn34q99xzj8vHe5/WXHNNVyeeUXedHM455xwHEExpTMBx48bJEUcckS+DAcvEAkAOPfRQmWeeeXy27hoeDzzwgGyxxRaOx2effSbUFz83SMXK++qrrxr4jExK33//vWM1fPhwN1Ex4dI/yP+5554LFtMs96nTTAgT/8gnZuill17af1RwjTbCsb7xxhvz6RD+7bffLsysQSKIwQyMWQUx0BjI0L333usGzCWXXCLMwNtuu63TTmg+aNddd5X9999f2rdv7+5/+ukn59C7mz//AGz9/0bke/rpp91A1DTF3ms6vtGygL9FixbSo0cP2WOPPZwGwD9gYOFbHXvssS4Lz3yt5fPp2LGjdO/e3YFvww03dFoDTfTMM8+4gU+7ILQ0oMKpZ9aH0AgnnHCCuw7+UR5MSgrQtdZay4H+iy++KEiuaQFaXHkFmQI3TEzw1/rQh8orkLTqt6kDE84xAQafMP3iSCN8V199dT7ZCy+84K4BSXA2ZdDdddddsueee8oGG2zgZtTlllvOpce0IwDgmzJ///vf83wx63B4iYZ9++23bmDnX/554dcf0AZnzmLvfX6kBUgQZhNtwYwj+ILWAGBK8803n5sk0GilEFoI8nkAulatWjkTV8GE2RVFY8eOda969eqVT4IsL7jgAnc/fvz4/PNSy8tnCFygsZlsFbS8XmCBBZz/R180N6UOTAQY9L+FlyocBhaE36JE9Ih7/JogMTNiJjzyyCPOl7jzzjudtmHWx/6ea65osWBOMYAAyTLLLOM0RzCU7YOXySFIxd776YN1UX7KI2j2Bu99XsFrtCqkvPQ9vpm+45mWqe/9b9XoQR5+Gr1WnsG0wfJYCgkjNX+D+YP3YXmr8Sx61FSj9ITKQFtABCeYqSA6Dsfd1zDuRe4PsxjmTM+ePR14CD4AKMCEJsDEoUPnmGOWS4lmAZSrrbaaAxK2OkEJiPKqtWbjCvzzDwMcUxOzlAABA4po3dtvvy2dO3f2k0Zeq9zwHzVYgGyYHHztGckg9wJfCiKsj08HEQ5niQMfyqdSykO74vsp4Scr8Y5oL20kwATRT1gm/kSq6av9XRNgWmedddxgIkqlJhmOLoImnO4ToNh9993dgCPQAGE6qE/GAOAfguGnYIvTURdffLEMGDAgv/ZD5AvNxuAFhM1FTAJE/wh2YJ59+OGHbrCVWh+sAEwygiqY0gsttJALxABMNHsphE8HoC666CI3ccHz8ssvd3XBX/U1ZSnlATiA+NBDDzlAE8zxCf+NIAvpCO/jQ02fPt3A5AupkmvVHHQSYV7CwQwuiMF1xhlnNGDLjE5A48wzz3SONgk6derkInhcAxLMTPwvwsEQHYidjjmCmcdgIQiB1uOd/z9hXYaE/mj7othppJGdIGgDggBEHYmmhZH6Xv67wYMHy4knnujC+zxHu/CsnJn+/PPPdzxOPfVUxxrtAY8wX7dYecj19ddfd/0Js6222krefPNNx5c/TJZMfgoyJgOAT8Svuanm/nMgESNI14ziBIwZCEAwH8IIk4d1nuCgJuTL4GVFP2yAhvFqimcEUagH0U/qgWlLOJ5dIap1Sy0XfwT/pxS5RfGEB/4rMitGxcqjb/AXw8x0eOPb0t5SyipWl6Te1xyYkhJMFvgQ1kb7okXweQiMoHlZFNXoZBbaUSt1NDBlvCdZtGQReerUqc4PXH/99YXtV0bVl4CBqfoytxJrVAKzYr812jhrlkmgmhIwMFVT2hkri0XtNJwTyorYamKdqRJhP/XUU27bDPvVjMIlwGZhAhrNfU4ovHbpe1q3YOK0KeeGDEzRg5LjHUalS6CmAxCYKNdee61b0CN8zBECdlnvvffeojua2dTJbgdW0znHxFkZQsxLLrmkbLPNNvld2HpWiTNS7HogH2mff/55t2uARUMWj9k14e9URwMCXDZ8Eq5mlucYNzu+WRsq5xwW61scwXj00UfdzgLOSnFuiAVqKI4X5bGrgMmDs00cuUAGrNPoDmx4sBjK9qKhQ4e6M1/shtC9knHnvMjLzgS2N1EPFpSRN/sXIaKO5513ntsqhOzYAsVRkOZcp3MVS/BPzfpMDF62FLFdn/NGDDgO8ekiJ9tg2PnAjgY0lJ5jYjGRZ4CLgcvAg/QsErP1ZpttJgNy24u+/PJLYdWfPXIcq2Bwcy7qnXfecXn4ZlcGi8LwBKDsnmD7i/Is5xwWA1X3EAIi9tDp8YtiZ7ookzZykJA9iOwIZ7Mua1W6WRWw4ifpLnFAoTsLVD4syoad82LiAoiAiI3EHCTkXBRHYeDLzhSAw+4TtmwxoQR30zuhZPhPzZp5ut2fbUAdOnRwW06YcVlV5zwPZ58AkfoDaBkGPXvM+O7bt68b9OztYxZVYpbWs0oMZrbHsAFWfQu0GdtfGFT333+/2ysHT3ZawJPBxfkrqNxzWBwPYVZnlwPtYOsTW4cYrKXyQuPoViHAjebm1DAaG/6ARTeRapv5LnbOC/nBg/2CEOtdnK1i0zD1hC9bg9hczIc+QJPXEtUsmOhATBT2emHacG6JbTZh+8XoUD0w6G8totM5Lq4zN+l01uYa7cYHRx0tBVDYSKtHDeBJPQCSEud+FEy8h0o9h7XJJpu4/YJsbGUwol04ZcuMX4wX5bA1R4HEPddsGMUUBQh8s+DbpUsXXhdQ3Dkv2szhTD566lgzYzJTb6wAdmaw35Gy0E5N9QMrWna1v2vWzGvbtq073oxJw2E67HW0VPDskQocAAA+n/Qe008JDaSED8G+OHwRnjNgfEKL6F5Bfe7voma2hhjU+mHTJjM4AzRIHOLD9OR0KTvXMfEwE6FSeAX3GJIPTcpvN7DDnhPBYVqJdHHnvHSyob3aDr4xsVdaaSWyO/MWs4+JBVN5l112ccc23Msa+VOzmonBBRjwbfjgv2C3MwgZrJD/QxwcI+BMDiaTOsWYheyAjtr8iX/BbM+GU/IwqLhWQoth6uE/4FdRJ8wlJT3fU+o5LDZ/clQEAPHBtOKHW/BtyuWldUBrYIbiGzLRBM8gabq4c16AGw2N5sc3VMLfQnZMRkxWmLn8DADl8MMwlImJXCtUs5qJH/jgAB/HIzhgpj6URr6IMnHIDO1CR+MHsbUfHwjThI7mOIP6R2EdjkkEQJjZOdsUNHGI/DFbAxYiW5hnPoD9c1iAnQ9mqT8g/XJPP/10Fy0kHQOVIAsaEd+jXF7Kl8FOXnwpDhXqIUF9r9+ADBAQ+SSyiXwJJjBRQLxHZnzw44hg4jPhj3FPhJPgCzImmMHEo5E+LSPr3zWrmbbbbjsX4sW8gxh0A3IaSn0enHg6GocZADGg/vGPf8i///1vF9EiPeFjIlNRRBj8pZdeyp8FYoZGkylx2A5+z+QiZhzcw6RC83H2CirnHBbp0UYnnXRS/swWQAVgBCPK5QU/JTQ1fhz188k3C/H9os55kYezVEQMAQwmKvIj9I1vBzGh8CtHhM8hAhRp+SEUV6EE/tT0OhPyoWPp5DBnl4HNDBkMSnCOCVCouVdMzgQeGDzBszdEsgj/MtAAFoTfQLBCf/5LeatvFWVSajq+0aRouKizPOXw8vmWeh11zov8yDTurBfvkC3yqjWqeTA1Z4cR3eJnsyB8MrQTZiE/tBjl6Ddnfa3sxknAwNQ4+RXNzUzMQim+Bf4I0brll1++aD5LkD0JGJiy12dW45RKoGajeSmVt1WrhiVgYKrhzrWmVVcCBqbqyttKq2EJGJhquHOtadWVgIGpuvK20mpYAgamGu5ca1p1JWBgqq68rbQaloCBqYY715pWXQkYmKorbyuthiVgYKrhzrWmVVcCBqbqyttKq2EJGJhquHOtadWVgIGpuvK20mpYAgamGu5ca1p1JWBgqq68rbQaloCBqYY715pWXQkYmKorbyuthiVgYKrhzrWmVVcCBqbqyttKq2EJGJhquHOtadWVgIGpuvK20mpYAv8HY2tF9Eiup6EAAAAASUVORK5CYII=;" parent="1" vertex="1">
          <mxGeometry x="110" y="191.15" width="211" height="203" as="geometry" />
        </mxCell>
        <mxCell id="RorEUMieY2BfaAc4E58H-51" style="edgeStyle=orthogonalEdgeStyle;rounded=0;orthogonalLoop=1;jettySize=auto;html=1;fontSize=11;fontColor=#3333FF;" parent="1" source="RorEUMieY2BfaAc4E58H-18" target="RorEUMieY2BfaAc4E58H-50" edge="1">
          <mxGeometry relative="1" as="geometry">
            <Array as="points">
              <mxPoint x="-40" y="280" />
              <mxPoint x="-40" y="280" />
            </Array>
          </mxGeometry>
        </mxCell>
        <mxCell id="RorEUMieY2BfaAc4E58H-52" value="Hashes/File Signatures" style="edgeLabel;html=1;align=center;verticalAlign=middle;resizable=0;points=[];fontSize=11;fontColor=#3333FF;" parent="RorEUMieY2BfaAc4E58H-51" vertex="1" connectable="0">
          <mxGeometry x="-0.1448" y="3" relative="1" as="geometry">
            <mxPoint as="offset" />
          </mxGeometry>
        </mxCell>
        <mxCell id="RorEUMieY2BfaAc4E58H-58" value="" style="whiteSpace=wrap;html=1;fontSize=11;fontColor=#3333FF;strokeColor=#FF7878;strokeWidth=3;textOpacity=20;" parent="1" vertex="1">
          <mxGeometry x="-840" y="730" width="1170" height="690" as="geometry" />
        </mxCell>
        <mxCell id="RorEUMieY2BfaAc4E58H-60" value="AWS Account 2" style="points=[[0,0],[0.25,0],[0.5,0],[0.75,0],[1,0],[1,0.25],[1,0.5],[1,0.75],[1,1],[0.75,1],[0.5,1],[0.25,1],[0,1],[0,0.75],[0,0.5],[0,0.25]];outlineConnect=0;gradientColor=none;html=1;whiteSpace=wrap;fontSize=12;fontStyle=0;container=1;pointerEvents=0;collapsible=0;recursiveResize=0;shape=mxgraph.aws4.group;grIcon=mxgraph.aws4.group_account;strokeColor=#7EA6E0;fillColor=none;verticalAlign=top;align=left;spacingLeft=30;fontColor=#CD2264;dashed=0;strokeWidth=2;" parent="1" vertex="1">
          <mxGeometry x="-630" y="1250" width="130" height="130" as="geometry" />
        </mxCell>
        <mxCell id="RorEUMieY2BfaAc4E58H-61" value="" style="sketch=0;outlineConnect=0;fontColor=#232F3E;gradientColor=none;fillColor=#3F8624;strokeColor=none;dashed=0;verticalLabelPosition=bottom;verticalAlign=top;align=center;html=1;fontSize=12;fontStyle=0;aspect=fixed;pointerEvents=1;shape=mxgraph.aws4.bucket_with_objects;container=1;" parent="RorEUMieY2BfaAc4E58H-60" vertex="1">
          <mxGeometry x="20" y="35" width="75" height="78" as="geometry" />
        </mxCell>
        <mxCell id="RorEUMieY2BfaAc4E58H-62" value="AWS Account 3" style="points=[[0,0],[0.25,0],[0.5,0],[0.75,0],[1,0],[1,0.25],[1,0.5],[1,0.75],[1,1],[0.75,1],[0.5,1],[0.25,1],[0,1],[0,0.75],[0,0.5],[0,0.25]];outlineConnect=0;gradientColor=none;html=1;whiteSpace=wrap;fontSize=12;fontStyle=0;container=1;pointerEvents=0;collapsible=0;recursiveResize=0;shape=mxgraph.aws4.group;grIcon=mxgraph.aws4.group_account;strokeColor=#0000CC;fillColor=none;verticalAlign=top;align=left;spacingLeft=30;fontColor=#CD2264;dashed=0;strokeWidth=2;" parent="1" vertex="1">
          <mxGeometry x="-460" y="1250" width="130" height="130" as="geometry" />
        </mxCell>
        <mxCell id="RorEUMieY2BfaAc4E58H-95" value="" style="sketch=0;outlineConnect=0;fontColor=#232F3E;gradientColor=none;fillColor=#3F8624;strokeColor=none;dashed=0;verticalLabelPosition=bottom;verticalAlign=top;align=center;html=1;fontSize=12;fontStyle=0;aspect=fixed;pointerEvents=1;shape=mxgraph.aws4.bucket_with_objects;container=1;" parent="RorEUMieY2BfaAc4E58H-62" vertex="1">
          <mxGeometry x="27.5" y="35" width="75" height="78" as="geometry" />
        </mxCell>
        <mxCell id="RorEUMieY2BfaAc4E58H-75" value="&lt;b&gt;&lt;font style=&quot;font-size: 22px;&quot;&gt;Strategy 2&lt;/font&gt;&lt;/b&gt;" style="text;html=1;align=center;verticalAlign=middle;resizable=0;points=[];autosize=1;strokeColor=none;fillColor=none;" parent="1" vertex="1">
          <mxGeometry x="-700" y="770" width="120" height="20" as="geometry" />
        </mxCell>
        <mxCell id="RorEUMieY2BfaAc4E58H-76" value="&lt;font style=&quot;font-size: 14px;&quot;&gt;Every AWS Account uses a single bucket to upload files to with their own prefixes, in the Security Account.&lt;br&gt;&amp;nbsp;s3:ObjectCreated:* event gets sent to the Security Team SQS Que with Pre-Signed URL&amp;nbsp;&lt;br&gt;Scanned files will be put in a SAFE bucket (Storage strategy yet to discuss)&lt;br&gt;If File is Malicious then it will be places in a Single Quarantine bucket. All other AWS accounts will pull from the Safe Bucket&amp;nbsp;&amp;nbsp;&lt;/font&gt;" style="text;html=1;align=center;verticalAlign=middle;resizable=0;points=[];autosize=1;strokeColor=none;fillColor=none;fontSize=22;" parent="1" vertex="1">
          <mxGeometry x="-598.5" y="731.5" width="790" height="120" as="geometry" />
        </mxCell>
        <mxCell id="RorEUMieY2BfaAc4E58H-77" value="&lt;font color=&quot;#3333ff&quot; style=&quot;font-size: 17px;&quot;&gt;Security Account&lt;/font&gt;" style="points=[[0,0],[0.25,0],[0.5,0],[0.75,0],[1,0],[1,0.25],[1,0.5],[1,0.75],[1,1],[0.75,1],[0.5,1],[0.25,1],[0,1],[0,0.75],[0,0.5],[0,0.25]];outlineConnect=0;gradientColor=none;html=1;whiteSpace=wrap;fontSize=12;fontStyle=0;container=1;pointerEvents=0;collapsible=0;recursiveResize=0;shape=mxgraph.aws4.group;grIcon=mxgraph.aws4.group_account;strokeColor=#FF0000;fillColor=none;verticalAlign=top;align=left;spacingLeft=30;fontColor=#CD2264;dashed=0;strokeWidth=3;" parent="1" vertex="1">
          <mxGeometry x="-598.5" y="877.65" width="248.5" height="290" as="geometry" />
        </mxCell>
        <mxCell id="RorEUMieY2BfaAc4E58H-78" style="edgeStyle=orthogonalEdgeStyle;rounded=0;orthogonalLoop=1;jettySize=auto;html=1;entryX=0.5;entryY=0;entryDx=0;entryDy=0;entryPerimeter=0;fontSize=17;fontColor=#3333FF;" parent="RorEUMieY2BfaAc4E58H-77" source="RorEUMieY2BfaAc4E58H-80" target="RorEUMieY2BfaAc4E58H-79" edge="1">
          <mxGeometry relative="1" as="geometry" />
        </mxCell>
        <mxCell id="RorEUMieY2BfaAc4E58H-79" value="Trend Scanner Lambda" style="sketch=0;points=[[0,0,0],[0.25,0,0],[0.5,0,0],[0.75,0,0],[1,0,0],[0,1,0],[0.25,1,0],[0.5,1,0],[0.75,1,0],[1,1,0],[0,0.25,0],[0,0.5,0],[0,0.75,0],[1,0.25,0],[1,0.5,0],[1,0.75,0]];outlineConnect=0;fontColor=#232F3E;gradientColor=#F78E04;gradientDirection=north;fillColor=#D05C17;strokeColor=#ffffff;dashed=0;verticalLabelPosition=bottom;verticalAlign=top;align=center;html=1;fontSize=12;fontStyle=0;aspect=fixed;shape=mxgraph.aws4.resourceIcon;resIcon=mxgraph.aws4.lambda;" parent="RorEUMieY2BfaAc4E58H-77" vertex="1">
          <mxGeometry x="138.5" y="160" width="54" height="54" as="geometry" />
        </mxCell>
        <mxCell id="RorEUMieY2BfaAc4E58H-80" value="Trend Scanner Queue" style="sketch=0;points=[[0,0,0],[0.25,0,0],[0.5,0,0],[0.75,0,0],[1,0,0],[0,1,0],[0.25,1,0],[0.5,1,0],[0.75,1,0],[1,1,0],[0,0.25,0],[0,0.5,0],[0,0.75,0],[1,0.25,0],[1,0.5,0],[1,0.75,0]];outlineConnect=0;fontColor=#232F3E;gradientColor=#FF4F8B;gradientDirection=north;fillColor=#BC1356;strokeColor=#ffffff;dashed=0;verticalLabelPosition=top;verticalAlign=bottom;align=center;html=1;fontSize=12;fontStyle=0;aspect=fixed;shape=mxgraph.aws4.resourceIcon;resIcon=mxgraph.aws4.sqs;labelPosition=center;" parent="RorEUMieY2BfaAc4E58H-77" vertex="1">
          <mxGeometry x="141" y="54.25" width="51.5" height="51.5" as="geometry" />
        </mxCell>
        <mxCell id="RorEUMieY2BfaAc4E58H-81" style="edgeStyle=orthogonalEdgeStyle;rounded=0;orthogonalLoop=1;jettySize=auto;html=1;fontSize=17;fontColor=#3333FF;" parent="1" source="RorEUMieY2BfaAc4E58H-82" target="RorEUMieY2BfaAc4E58H-84" edge="1">
          <mxGeometry relative="1" as="geometry" />
        </mxCell>
        <mxCell id="RorEUMieY2BfaAc4E58H-82" value="Investor File Upload" style="sketch=0;aspect=fixed;html=1;points=[];align=center;image;fontSize=12;image=img/lib/mscae/CustomDomain.svg;fontColor=#3333FF;strokeColor=#FF0000;strokeWidth=3;" parent="1" vertex="1">
          <mxGeometry x="-800" y="890" width="73.33" height="61.6" as="geometry" />
        </mxCell>
        <mxCell id="RorEUMieY2BfaAc4E58H-83" style="edgeStyle=orthogonalEdgeStyle;rounded=0;orthogonalLoop=1;jettySize=auto;html=1;fontSize=17;fontColor=#3333FF;" parent="1" source="RorEUMieY2BfaAc4E58H-84" target="RorEUMieY2BfaAc4E58H-63" edge="1">
          <mxGeometry relative="1" as="geometry">
            <mxPoint x="-589.9979928213309" y="1022.6999999999998" as="targetPoint" />
          </mxGeometry>
        </mxCell>
        <mxCell id="RorEUMieY2BfaAc4E58H-84" value="S3 Pre-Signed URL" style="shape=image;html=1;verticalAlign=top;verticalLabelPosition=bottom;labelBackgroundColor=#ffffff;imageAspect=0;aspect=fixed;image=https://cdn4.iconfinder.com/data/icons/online-marketing-hand-drawn-vol-3/52/link__url__network__chain__linked__website__content-128.png;fontSize=17;fontColor=#3333FF;strokeColor=#FF0000;strokeWidth=3;" parent="1" vertex="1">
          <mxGeometry x="-785.99" y="1000" width="45.3" height="45.3" as="geometry" />
        </mxCell>
        <mxCell id="RorEUMieY2BfaAc4E58H-87" style="edgeStyle=orthogonalEdgeStyle;rounded=0;orthogonalLoop=1;jettySize=auto;html=1;entryX=1;entryY=0.75;entryDx=0;entryDy=0;entryPerimeter=0;fontSize=11;fontColor=#3333FF;exitX=-0.009;exitY=0.792;exitDx=0;exitDy=0;exitPerimeter=0;" parent="1" source="RorEUMieY2BfaAc4E58H-89" target="RorEUMieY2BfaAc4E58H-79" edge="1">
          <mxGeometry relative="1" as="geometry">
            <Array as="points">
              <mxPoint x="-406" y="1082" />
            </Array>
          </mxGeometry>
        </mxCell>
        <mxCell id="RorEUMieY2BfaAc4E58H-88" value="Scan Results" style="edgeLabel;html=1;align=center;verticalAlign=middle;resizable=0;points=[];fontSize=11;fontColor=#3333FF;" parent="RorEUMieY2BfaAc4E58H-87" vertex="1" connectable="0">
          <mxGeometry x="-0.0264" y="-2" relative="1" as="geometry">
            <mxPoint x="23" as="offset" />
          </mxGeometry>
        </mxCell>
        <mxCell id="RorEUMieY2BfaAc4E58H-89" value="" style="shape=image;verticalLabelPosition=bottom;labelBackgroundColor=default;verticalAlign=top;aspect=fixed;imageAspect=0;image=data:image/png,iVBORw0KGgoAAAANSUhEUgAAANMAAADLCAYAAAD0gqYvAAAAAXNSR0IArs4c6QAAAGJlWElmTU0AKgAAAAgAAYdpAAQAAAABAAAAGgAAAAAABJKGAAcAAAASAAAAUKABAAMAAAABAAEAAKACAAQAAAABAAAA06ADAAQAAAABAAAAywAAAABBU0NJSQAAAFNjcmVlbnNob3RfRHV2AAAB1mlUWHRYTUw6Y29tLmFkb2JlLnhtcAAAAAAAPHg6eG1wbWV0YSB4bWxuczp4PSJhZG9iZTpuczptZXRhLyIgeDp4bXB0az0iWE1QIENvcmUgNi4wLjAiPgogICA8cmRmOlJERiB4bWxuczpyZGY9Imh0dHA6Ly93d3cudzMub3JnLzE5OTkvMDIvMjItcmRmLXN5bnRheC1ucyMiPgogICAgICA8cmRmOkRlc2NyaXB0aW9uIHJkZjphYm91dD0iIgogICAgICAgICAgICB4bWxuczpleGlmPSJodHRwOi8vbnMuYWRvYmUuY29tL2V4aWYvMS4wLyI+CiAgICAgICAgIDxleGlmOlBpeGVsWURpbWVuc2lvbj4yMDM8L2V4aWY6UGl4ZWxZRGltZW5zaW9uPgogICAgICAgICA8ZXhpZjpQaXhlbFhEaW1lbnNpb24+MjExPC9leGlmOlBpeGVsWERpbWVuc2lvbj4KICAgICAgICAgPGV4aWY6VXNlckNvbW1lbnQ+U2NyZWVuc2hvdDwvZXhpZjpVc2VyQ29tbWVudD4KICAgICAgPC9yZGY6RGVzY3JpcHRpb24+CiAgIDwvcmRmOlJERj4KPC94OnhtcG1ldGE+Cp3vHMQAACc5SURBVHgB7Z0HuBRFEscLs6AYQEyAgIoBcyIZUM+MORwqKqZT71PRw3zmHMBwBgznmRUTJsw5AKYzK4IZUYJwKioGDLe/xlp6583Mhjdv38xu1fft2wnd1d3V/e8K3b2vxR85EiOTgEmg0RKYo9EcjIFJwCTgJGBgsoFgEkhIAgamhARpbEwCBiYbAyaBhCRgYEpIkMbGJGBgsjFgEkhIAgamhARpbEwCBiYbAyaBhCRgYEpIkMbGJGBgsjFgEkhIAgamhARpbEwCBiYbAyaBhCRgYEpIkMbGJGBgsjFgEkhIAnMlxEdGjhwpM2fOjGQ3//zzS/fu3eXVV1+Vs846S3bccUfZe++95eeff5YDDzxQ2rZtKxdeeGFk/kpefPDBB/Lee+/J+++/LwsuuKCsvPLKsvrqq8siiyxSCbuazPPdd9/JW2+95WQ0efJkWX755Z2cunXrlpn23nzzzXL33XfL8ccfL+utt16z1TsxMJ155pnyyy+/RDakdevWcs8998hzzz0n06dPl4ceesiB6bfffpMvvvhCvvnmm8i85b4A1Oeee64888wzBVkR+JxzzimnnHKK9O7dO/8OsI0ZM0ZWXXVVWW655fLPa/0CEB177LEF/fbkk0+6Zq+11lpy2mmnScuWLVMvhgcffNCNKcaWgqk5+jQxMKnE0ThooSABJqh///4yzzzzyEYbbRRMktj96aefLqNGjXLA+etf/yorrriiMAMzUF577TU5+eSTnRZES0FPP/203HXXXbLXXnvVDZg+/fRTOfLII137V1ppJdlyyy2lTZs28uGHH8qtt97q5DRo0CAZOnSoS5PmP//85z/dxLnbbrvlq9kcfZo4mPbZZx9nUuVbFbho166dHHrooYGnyd2iHQESdNVVV0nnzp3zzBkwgwcPlocffliGDx/uTL78yzq7UA207rrrOi2uze/Zs6dsscUWsvvuu8u4cePkyy+/lKWWWkpfp/J7lVVWET7NTYmDqViD3nnnHbnpppukV69esv3220cm5zQ9oOCDNunUqZP06NFDNt10U1lggQUi8zGzQmhHH0iaYcCAATLffPPJoosu6kzLc845x83GvMf0VHMPDQrNmDFDnnrqKXnllVdk7NixzqfAlOjTp0/BpHHHHXfIf//7X9lvv/3k5Zdflueff975gzfccIPj88knnwhpGKDwRFuineHjEz4kAx0f9KOPPpIOHTo4jYk5PGzYMJd+q622ymfBz6F+pEf74pduuOGGRQfXG2+84Xgg0yAx4aGVPv74Y1dX/z3mE+bz6NGjpVWrVq4fN9lkkwaAo42ke+mll5zcaMcaa6whu+66q7NM4Ml7JrbtttuuwOzm3Z133un8a+S5wgoruGue0f9zzz23jBgxQtCuF198sRsfjBMsi/bt20tUn/KO8pDRTjvtRDF5+v333+Wkk06SX3/9VU499dRQ6yqfOOKi6mCaNGmSEwxBgDgwXX755c7H0npPmTLFDdL7779frrzySidQfed/K4B+/PFH11nBwUqgQzWj1kXzT5s2TfjMMcesICda7vDDDxeAoPTVV185gGMWovkAJvTmm2+6dsFzwoQJ7hn+GQSw6CCfaA82PgMCgENMICeeeKIbHO5B7g/lMZngz7399tuyxBJLiIKJsvbdd98Cn4ey8Q0pb4MNNlA2Db4ZoARnHnjgAdl8880b+EZbb711gzwAFhPZJyaYW265Ra699to8oPBZjzjiCDcZaFptx6OPPiqXXHKJCwIBVgJSmNu+D0seJl3eATTqSru4nzhxovOxlS999O6777p3tIP+JZ2S36frrLOOe8eEiTvSokULTeZk/OKLLzr5hrkp+YQxF6kMjTN7EKzAtxoyZIg8/vjjcv3117tZh8FHcCGKEIR2zBlnnCGHHHKIM+kARPC3YxiYaIFddtnFsWNm456ZDcIBJx8zNQB+4oknHICY4ehcZrIg8fyggw5yMysDlTIvvfRSl6xfv35u8PJcAY2WZjaE/vOf/7hOBYTnnXeeMPB4jyYESD6hwQA6g2mzzTZzPh+OOM8gwDR+/Hg/S8E1Ji/lIM+dd97Zmb8MJrRbGJEOeUCUgWYAtGgK6gB40J4QPitadbHFFhMmRfoPACE3gk30ZaVEfiZIeGBJdOnSpYBVXJ9iDeAX/vDDD24i8TM+9thj7nbbbbf1H5d1nTiYcAL79u3b4IPpUyrde++9Limdh2mApsBMQKVDzPRxRLRu4403dkkwq+jQAw44QJht//WvfxXMbFF8GOAMLuiiiy5y5h0zGdE+/C4GIhoDDejTNttsI8gAM3Leeed1r4455hiXhyUAomN8mBnpWIg6QoAVov7MonPNNZeb7RmcDEyfmF2ZdTF/icih6dGSaHvkD6FJokjbQWAIMDCB4cjvsMMObgJ65JFHCiYfAAFYAB5lMGktvPDCLhy99NJLu7qgaZCb+qzIiQFM/+HTMLmRFqBVSkxsTGKMB+Tra5dSeKpsFDzkwcTTMcUkUynNVWnGpsrHTK5+DyF07OogaTidjgkjBjrm0mGHHSYIDVBg0jBo7rvvPjerAkzWnaJI69CxY0en+v10DGzMSdIABI0KkoaQsk90NsCAMHU+//xzN/t///33bgDy/KeffnJ1w/SDgn4MPsL6669fYPbSHgjf5Nlnn3XX+ge5QZpGnwe/V1ttNae1CZEDltdff10wHWnTBRdc4PwigA0YSANR12Cf6LIG5elaI1qIj0/I8sYbb/QflX299tprl53Hz4CJjB9LtE+jmUyKjA1MaSaISilxMOFks0BaKWETK6m5pff+N2ZHFJg03UILLeQcXpxeQMpgOf/8892gZrbHoY8iFnwhZv4wUjCRzgeT+lB+Hux/ykOTRNHUqVPdK5x6JoMgLbnkkgWP8FUgAMiMH0ZoimIE2Km/tgFg3H777S5Y8sILLzi/DrNKy8OU5BNGmMTqbwbNr7D0lTwLk285fJgI8cFoD74Wi9OqpeJ8+FLKSBxMpRQalwbzSAm/IUj4Cqh3VurLIQYNWgNTBvseLYF2iIoMLr744o496cJIn2u6sDQ8A0ADBw50rzF10DCEmjGv8Gt0VlewYM9jOgadYNWUWo6afbSJtTSfmDjQ3pXMsuTB5yOgwoBjAgJM+CL4KwcffHCDKKn2CWnQbBBRxlJJfS0/vfqR/rOkrglqoHnRxqyxYeIxgdE3jaHUgYmZh4HCYMVMoIPKoeuuu05uu+025zeoM+7nX2aZZfK3+CQ+YTsrIWQI+56O9dPS+aq54kxF8hNChpZddlnnhLubP//45QH2TjktiMZlDWzPPffMJ0UWQdOKGZUgDZOBmpH5DEUuMMXw7SC0UNj2KjQLYFJQYwIBJvy9uPKwBiC0lILMPcj9wZSibUyG/uI+GiJImMNJkC9j5cfkwNY1lhQAEPXSkLumqeR7jkoyNXWeNddc0xWB36M2OA/oIMKfNPzbb78NrQaCYrATbdIAgiaEF1ElCFWvJoMGCnDqlTBVATWCxpH2iSAGGgTtokEE/71/TUQSwo9BYygRWlffRp/tscce7pKoHjsPsOWJ/OH7UQ+fdO8c4XU/0EAZZ599tpMRgZMwwgdDxsiJyCga2ifMUl3U1cio+oKXXXZZXvuQB58N4NMnzPDIjSAB9aUePpH3mmuuyTv79AFEO31ZMHEA3MZQWJ8qP/qdZQP6UF0JtFVjqXBqbiy3hPKjUXB4AQ+NxFEGCJgeELOazoDBIvFlWBAmooRJh1/FMxxnwIIAITbZKqnJSKfuv//+bmsNfhb+FVFAzAEWH7t27eqcczoes4CwfTHSvWJoF0LwRCcx2Qihw8M3cRiQaCa28wA2PhDpiEIxQSgxYI8++mhnrrD2gxZHswEETEdAzC6GKGKnCiYcazK0lbaxRvPZZ585uZOPwa6gpW7IAJABHjQ3wGHxF+AQXFDgYUIRucTnov/gwWKvAgYZQ0T68BHpE/oU2aDN6KegbFyGMv5E9amyQJ6AFlkxKSaxg6LqmglzBgp+ayP5xrRg9ieqhVDpcIDEAGFw6xqNn8e/xiHH7ic9MxydCg86DXCx2OpHzFD1OJ+UxWBW04wBQtQPE4e8ygPTDm3lO9nqePv14BofhHUmvuk4OpAgC21QDayyID0DjUVQ3hOmZVCynqORMeqoxHsiUtQTcNJOyqC+tDHORKYNRNYAEWAAhNSNCQy5MbjRJH67jjvuOBc6Rxsz4FnuIC/1YPlB01JXtCJBDSYx0gEkZH/FFVfkAYrJiGyYGCCACV/C72xr8smXkf+ca18m+i6qT/U9wAXIkIbL9V2l3y1yZsFs26NSLk2cD6cW06SYSRVWja+//toNEDoOvwU+UYRvhMmDGaAmoKbF9qYeBBzCOk/TxX0z0DGLGOQ68Pz0mGtE5+hotKlPaAPKP+qoo/I7IPz3BC0IdlC/uDb6efSadjOJUD98Sg1u6Puwb9ICFIAQ1hbNg9yYPEgXVy/kQl9Rf98/VT6Vfkf1KeUBWiYDJq+4iafUslNp5gUr35iG4lyHOdjBMrinE6MiYAyYxm74hHcUf8rH6canQDOwNw6twTMcZY2Ssa8sjNDmqr3C3sc9o93lHj2Ja4dfFnIrtoRBeiY7PklTsE8xq1mGQEMCJCyUxowvv76Z0Ex+hWv5mpn+hBNOyPuGflvRhuwICZo/fhq7Li4BAjvqizIBXX311Y2eJLVUA5NKIkXfRCHZi4fphQbA2eeoRLE1rRQ1IbVVIfqJb4k5i69XiesQ1TgDU5Rk7LlJoEwJVD2aV2b9LLlJIDMSMDBlpqusommXgIEp7T1k9cuMBAxMmekqq2jaJWBgSnsPWf0yIwEDU2a6yiqadgkYmNLeQ1a/zEjAwJSZrrKKpl0CBqa095DVLzMSMDBlpqusommXgIEp7T1k9cuMBAxMmekqq2jaJWBgSnsPWf0yIwEDU2a6yiqadgkYmNLeQ1a/zEjAwJSZrrKKpl0CBqa095DVLzMSMDBlpqusommXgIEp7T1k9cuMBAxMmekqq2jaJWBgSnsPWf0yIwEDU2a6yiqadgkYmNLeQ1a/zEjAwJSZrrKKpl0CBqa095DVLzMSMDBlpqusommXgIEp7T1k9cuMBAxMmekqq2jaJWBgSnsPWf0yIwEDU2a6yiqadgkYmNLeQ1a/zEjAwJSZrrKKpl0CmfiftmkXYtL1+/zzCTJy9Og8W+596tChvXTI/UdzqHevwv9K7qez6+pKwP5zYHXlHVvayFGj5fMJE3L/FLoQPLGZci979exhoCompCq8NzBVQcjFilBN5INItU/HDh1cdu4h0ozP/Qd2aNToF923/jFQqSSa59vA1Dxyz5eKNvJBASAAkIInnzDiIqjNDFARgqrCYwNTFYQcVYQPJMDTu2fPkkEU5Bnk1W+3XYNJ7L6JJWBgamIBR7H3B39S2sTnCTgNUFHSb5rnFhpvGrnGcsXvUdMuKSBRIJE9BZDzw3ImpFH1JGBgqp6s8yVpAMGZdgmHtuEJQCEA6wc18hWwiyaRgIGpScQazdQ3xVSLRKeu7A0aClBB/npVZdwsV6kSMJ+pVElVkE61ApqI9SMlnidp3ilf/5syht1xp3ukwNKF3nKihT5Pu46XgIEpXj4VvWUgoxEUTGFMjh50ZNjjRJ8Bprg6NDWgE21MBpgZmBLuJN+Mg3VQK/CsmpqB+vgU3GFhgPKl07hrA1Pj5FeQ2wcSIGrMulEB4ya48esKe/w3BX4TFFcXLC0AkVA3+4OT2T7tg5MgBfVUskCFSqLybwNT5bIryNkU60YFBTTBja1LJStUA1MC8lS/xJl2Ca8bJVC9WBbUWTWUrUvFiqroSwNTUREVT6BaCR8pi+SvS+mCchbb0dx1NjA1sgf80HOWHXhdg/LXwxopmrrLbmBqZJfrTK6mUiPZNVt2PTflTw7NVpmMFmxgymjHJV1tX6saoCqTroGpMrm5XAw69Zd0Zm8Eu9RkVW2bmgplpCL2gypldpTudwvO3gxAf3Yvk20qklN/nSB0klDzlSCFUbwEDEzx8sm/ZZApkPIPcxcMQJz3sME2bdo0Ge39ypCfj+ueuehfmzZtgo/d/bhx44RPFDUmb9++fUPZ0g4+CiQS+ddhbQxlVKcPbTtRCR3v724guR6dKKaJigECIAGKMAKEgDGK4vKOGDEiKpt7HpfXz8gEgsZVQNHeNG+R8uveHNemmYpI3QcSg0mBVCSb0ypxmoX8gIVPUDuRLw5IxfIWq1tUucF8Tuvm2gwBKMA1UkZLvw72+xJBWXFvAYgwqfz5TP0HbvEdSgUS6YsBiTRQmBlYat6wdGHPZpVU+LfUdOTCvNMjIw5QgZ3ohZzr987MvJi+V60EkOL8hbFjx8rEiRPznHTmzz8ocoFmUu1Uzbztc/5Ry5Yt87Xr0qWLdOzYMX8fvABI6jemfSNvsO7VuDczL0LKCiRexwGJ98OHD5eZM2dyWRFNmjSponxkSjLvmDFj5JBDDomsi5p9TjvlfDoz9wpFZWAqlEeDOw0NN3jhPejfv79Mnjw5/2TKlCn561Iv2rVr55KWm7dVq1bCB2pMXvJ36tSJr1giADHs8/gTvLEMavilgSmic8vZo9bB/QLrrJ8xjmBXM4/RTkpoKP9en9frt4EpoucZKFClOxtw8ItF5ODftWvXvL/EPVSNvN26dZPWrVvPKrDMvwBI5VNm1ppObmAq0r2VzrwEFEqJmGngwa9GU+VV4IaV6Zdf6nUt7Poota2lpDMwFZFSpaYMA5bBGwco3odRY/N27txZpk+fntd48AsC6KOPPpJll102rHh7VqEEDEwRgkvClIkCixYZ9z7uHfnj3mPChREAeuyxx4RvJQDFZ/PNN9dHRb/VxCsW5SzKqMYS2DpTRIdqaBxQlbNYG8GuKo99kGiBPNOPPov7VlAFtZZ/z24I5KMLuXH86umdaaaI3ibwoFtoKjX1Ilg3yeOjjjqqJL6qhRQcqqkUiNxHEUDjw3LBH3/8EZWsbp+bZorpev1F1LRrJ4AwdOjQBi1RwPACEPj3DRLnHiiQ4jTZ4MGDw7Las5wETDPFDAPMuwuGXDRrg2fOrEm7jwBY4nYwxDTVvVITLyxdqZovLG+9PLONrkV6Wv0lTD7VVEWyZOb1jFGF/xM3MxVPaUVNMxXpGEw8fAT1n9hKo1uM0qap1O+JatLUIRfLjNEvSRBELXv1kLb/GCh8h1ExvmF56vGZgamEXgc0fDTCB7Ag/QZwzUHt2i0mm/TpU1LRAGnqkEtC0wKu8blP20EDc58jQtPYw+ISMDAVl1E+ha+JFEi81HWXfMKUXYzfZfcG2kiriDYCTAYklUjl3wamMmWngNLvNADJj9Jhkvn3ACVo1vlN1ndoLT4rfvmJ/9pdq5nn822QyB5YNK+xY6C5TLxS641WKocwB83UK0dis9NaNG+2LGruSrWO3zDMuThqmQu2RGkz00xxkrPfgIiXTobeFhvogKjjXbcJYIkj50PlAiwz/gyyxKW1d4USMM1UKI/M3+kuBhqigNDgggIlKgSuWovwuU8+T/+5XRdKwMBUKI/M3unuBQ0W+A1RcGC+EWSIMv/wlTTypxrM56dl+LzterYEDEyzZZHpK9/MUwAoIFiQhaZeGL7OpJrLLermAOeT8vL5++/terYEDEyzZZH5Kx3wapZhzgGUKLOOBvtA0kVd0mseA1Ppw8LWmUqXVepTYoaxe1wBQIVVO8267p5vQ8ue3fMh8ODuCNVk8FFeCtQ8A7toIAEDUwORZPeBP+ABAfeqYWhVcP0oCKJZaWZrMgUSIPV5Z1dCTVtzA1PTyrfq3Bn4mHl8gscxAA8UttmV52rycQ2puTjrzv4Wk4AdDiwmoQy+17NHAIuPTy6i5wUiMPegoNZSQIbx8PnZ9WwJmGaaLYuaufK1E+aZb6Jh9nXMfeJIgRSXxt41lIBF8xrKJPNPAJMCKBiQKNY4H0imlYpJq/C9galQHjVzh79ULqAMSI3rfgNT4+SX6txBDQVYoggNpu8BIXmNypOABSDKk1cmU/sahwao+abrSAoi/10mG9rMlTYwNXMHVKv4IKCC5ao2UtMw+N7ui0vAwFRcRjWVIggqA1Fy3WtgSk6WxqnOJWABiDofANb85CRgYEpOlsapziVgYKrzAWDNT04CBqbkZGmc6lwCBqY6HwDW/OQkYGBKTpbGqc4lYGCq8wFgzU9OAgam5GRpnOpcAgamOh8A1vzkJGBgSk6WxqnOJWBgqvMBYM1PTgIGpuRkaZzqXAIGpjofANb85CRgYEpOlsapziVgYKrzAWDNT04CBqbkZGmc6lwCBqY6HwDW/OQkYGBKTpbGqc4lYGCq8wFgzU9OAgam5GRpnOpcAgamOh8A1vzkJGBgSk6WxqnOJZAqMP3+++/y66+/Nvjw/I8//pBrrrlG3n//fddlI0eOlGeffbamum/atGlyxRVXyDfffNNk7Zo0aZLceuutMmzYsCYrw2f83XffyU033SRff/21/zjR65dfflmeeOKJRHlWwixV/1LmwgsvlIcffrhBO7bccks54IAD3AD44YcfZMUVV5QRI0bIjz/+KBtttFGD9Fl98NZbb8ndd98tq6++uvTu3TvxZsycOVP23XdfmXPOOWXTTTdNnH8YQ0B0/fXXy3rrrSeLLLJIWJJGPwNIH3/8sfzlL39pNK/GMEgVmGhI69at5ZRTTilo02KLLeY64rbbbpNFF1204F0t3Wy88caywgoryFJLLdUkzWLA/fLLL3LppZfKyiuv3CRl1DPT1IFp3nnnlTXWWCO0Tw4//HDZb7/9Qv9Dw5QpU9wgefXVV2XhhReWrbfeWvbaa69QPpgeZ599trzxxhtull533XXl6KOPlpYtW7r0r732mtxwww0yZswYB94ddthB+vXr596RFw36yiuvyG+//SZdu3aVk08+Wdq0aSMffPCBDBo0SA466CC5+eabBbONnx8+7bTTpF27dkXff/LJJzJw4EC58sorHaDIt+CCCwplvvjiizL33HNL//79Zbfddsu3C9P38ccfd6Zhnz593GQ0ceJEOeuss/JpuLjvvvscX66POeYYB9ohQ4Y4kxpwjR49WmbMmCGrrrqqHHbYYXlA77zzzrL99tvLk08+KRMmTHAWwfzzzw+bPGGaX3bZZTJq1ChXVyaE448/XhZffPF8Gr0gbVx5yK9bt26unzUP7UWmqk2vu+46Z8FgDtNmNG4aKFU+UzGB/O9//xPMvCD9/PPPcuSRR8p7770nf/vb35yJhGmByRRG5557rrz77rtuUB144IGC/4WvAjGgjzvuOGdCMqhWWWUV56thVkIAifT77LOP+/CfJFSTUg/qx8DaaaedZMcdd3T/rfyOO+5weYu9R2uQnwEHTZ48WR588EE3yA8++GBZYokl5KqrrnL3vL/llluc6bv22msLE82nn34q99xzj8vHe5/WXHNNVyeeUXedHM455xwHEExpTMBx48bJEUcckS+DAcvEAkAOPfRQmWeeeXy27hoeDzzwgGyxxRaOx2effSbUFz83SMXK++qrrxr4jExK33//vWM1fPhwN1Ex4dI/yP+5554LFtMs96nTTAgT/8gnZuill17af1RwjTbCsb7xxhvz6RD+7bffLsysQSKIwQyMWQUx0BjI0L333usGzCWXXCLMwNtuu63TTmg+aNddd5X9999f2rdv7+5/+ukn59C7mz//AGz9/0bke/rpp91A1DTF3ms6vtGygL9FixbSo0cP2WOPPZwGwD9gYOFbHXvssS4Lz3yt5fPp2LGjdO/e3YFvww03dFoDTfTMM8+4gU+7ILQ0oMKpZ9aH0AgnnHCCuw7+UR5MSgrQtdZay4H+iy++KEiuaQFaXHkFmQI3TEzw1/rQh8orkLTqt6kDE84xAQafMP3iSCN8V199dT7ZCy+84K4BSXA2ZdDdddddsueee8oGG2zgZtTlllvOpce0IwDgmzJ///vf83wx63B4iYZ9++23bmDnX/554dcf0AZnzmLvfX6kBUgQZhNtwYwj+ILWAGBK8803n5sk0GilEFoI8nkAulatWjkTV8GE2RVFY8eOda969eqVT4IsL7jgAnc/fvz4/PNSy8tnCFygsZlsFbS8XmCBBZz/R180N6UOTAQY9L+FlyocBhaE36JE9Ih7/JogMTNiJjzyyCPOl7jzzjudtmHWx/6ea65osWBOMYAAyTLLLOM0RzCU7YOXySFIxd776YN1UX7KI2j2Bu99XsFrtCqkvPQ9vpm+45mWqe/9b9XoQR5+Gr1WnsG0wfJYCgkjNX+D+YP3YXmr8Sx61FSj9ITKQFtABCeYqSA6Dsfd1zDuRe4PsxjmTM+ePR14CD4AKMCEJsDEoUPnmGOWS4lmAZSrrbaaAxK2OkEJiPKqtWbjCvzzDwMcUxOzlAABA4po3dtvvy2dO3f2k0Zeq9zwHzVYgGyYHHztGckg9wJfCiKsj08HEQ5niQMfyqdSykO74vsp4Scr8Y5oL20kwATRT1gm/kSq6av9XRNgWmedddxgIkqlJhmOLoImnO4ToNh9993dgCPQAGE6qE/GAOAfguGnYIvTURdffLEMGDAgv/ZD5AvNxuAFhM1FTAJE/wh2YJ59+OGHbrCVWh+sAEwygiqY0gsttJALxABMNHsphE8HoC666CI3ccHz8ssvd3XBX/U1ZSnlATiA+NBDDzlAE8zxCf+NIAvpCO/jQ02fPt3A5AupkmvVHHQSYV7CwQwuiMF1xhlnNGDLjE5A48wzz3SONgk6derkInhcAxLMTPwvwsEQHYidjjmCmcdgIQiB1uOd/z9hXYaE/mj7othppJGdIGgDggBEHYmmhZH6Xv67wYMHy4knnujC+zxHu/CsnJn+/PPPdzxOPfVUxxrtAY8wX7dYecj19ddfd/0Js6222krefPNNx5c/TJZMfgoyJgOAT8Svuanm/nMgESNI14ziBIwZCEAwH8IIk4d1nuCgJuTL4GVFP2yAhvFqimcEUagH0U/qgWlLOJ5dIap1Sy0XfwT/pxS5RfGEB/4rMitGxcqjb/AXw8x0eOPb0t5SyipWl6Te1xyYkhJMFvgQ1kb7okXweQiMoHlZFNXoZBbaUSt1NDBlvCdZtGQReerUqc4PXH/99YXtV0bVl4CBqfoytxJrVAKzYr812jhrlkmgmhIwMFVT2hkri0XtNJwTyorYamKdqRJhP/XUU27bDPvVjMIlwGZhAhrNfU4ovHbpe1q3YOK0KeeGDEzRg5LjHUalS6CmAxCYKNdee61b0CN8zBECdlnvvffeojua2dTJbgdW0znHxFkZQsxLLrmkbLPNNvld2HpWiTNS7HogH2mff/55t2uARUMWj9k14e9URwMCXDZ8Eq5mlucYNzu+WRsq5xwW61scwXj00UfdzgLOSnFuiAVqKI4X5bGrgMmDs00cuUAGrNPoDmx4sBjK9qKhQ4e6M1/shtC9knHnvMjLzgS2N1EPFpSRN/sXIaKO5513ntsqhOzYAsVRkOZcp3MVS/BPzfpMDF62FLFdn/NGDDgO8ekiJ9tg2PnAjgY0lJ5jYjGRZ4CLgcvAg/QsErP1ZpttJgNy24u+/PJLYdWfPXIcq2Bwcy7qnXfecXn4ZlcGi8LwBKDsnmD7i/Is5xwWA1X3EAIi9tDp8YtiZ7ookzZykJA9iOwIZ7Mua1W6WRWw4ifpLnFAoTsLVD4syoad82LiAoiAiI3EHCTkXBRHYeDLzhSAw+4TtmwxoQR30zuhZPhPzZp5ut2fbUAdOnRwW06YcVlV5zwPZ58AkfoDaBkGPXvM+O7bt68b9OztYxZVYpbWs0oMZrbHsAFWfQu0GdtfGFT333+/2ysHT3ZawJPBxfkrqNxzWBwPYVZnlwPtYOsTW4cYrKXyQuPoViHAjebm1DAaG/6ARTeRapv5LnbOC/nBg/2CEOtdnK1i0zD1hC9bg9hczIc+QJPXEtUsmOhATBT2emHacG6JbTZh+8XoUD0w6G8totM5Lq4zN+l01uYa7cYHRx0tBVDYSKtHDeBJPQCSEud+FEy8h0o9h7XJJpu4/YJsbGUwol04ZcuMX4wX5bA1R4HEPddsGMUUBQh8s+DbpUsXXhdQ3Dkv2szhTD566lgzYzJTb6wAdmaw35Gy0E5N9QMrWna1v2vWzGvbtq073oxJw2E67HW0VPDskQocAAA+n/Qe008JDaSED8G+OHwRnjNgfEKL6F5Bfe7voma2hhjU+mHTJjM4AzRIHOLD9OR0KTvXMfEwE6FSeAX3GJIPTcpvN7DDnhPBYVqJdHHnvHSyob3aDr4xsVdaaSWyO/MWs4+JBVN5l112ccc23Msa+VOzmonBBRjwbfjgv2C3MwgZrJD/QxwcI+BMDiaTOsWYheyAjtr8iX/BbM+GU/IwqLhWQoth6uE/4FdRJ8wlJT3fU+o5LDZ/clQEAPHBtOKHW/BtyuWldUBrYIbiGzLRBM8gabq4c16AGw2N5sc3VMLfQnZMRkxWmLn8DADl8MMwlImJXCtUs5qJH/jgAB/HIzhgpj6URr6IMnHIDO1CR+MHsbUfHwjThI7mOIP6R2EdjkkEQJjZOdsUNHGI/DFbAxYiW5hnPoD9c1iAnQ9mqT8g/XJPP/10Fy0kHQOVIAsaEd+jXF7Kl8FOXnwpDhXqIUF9r9+ADBAQ+SSyiXwJJjBRQLxHZnzw44hg4jPhj3FPhJPgCzImmMHEo5E+LSPr3zWrmbbbbjsX4sW8gxh0A3IaSn0enHg6GocZADGg/vGPf8i///1vF9EiPeFjIlNRRBj8pZdeyp8FYoZGkylx2A5+z+QiZhzcw6RC83H2CirnHBbp0UYnnXRS/swWQAVgBCPK5QU/JTQ1fhz188k3C/H9os55kYezVEQMAQwmKvIj9I1vBzGh8CtHhM8hAhRp+SEUV6EE/tT0OhPyoWPp5DBnl4HNDBkMSnCOCVCouVdMzgQeGDzBszdEsgj/MtAAFoTfQLBCf/5LeatvFWVSajq+0aRouKizPOXw8vmWeh11zov8yDTurBfvkC3yqjWqeTA1Z4cR3eJnsyB8MrQTZiE/tBjl6Ddnfa3sxknAwNQ4+RXNzUzMQim+Bf4I0brll1++aD5LkD0JGJiy12dW45RKoGajeSmVt1WrhiVgYKrhzrWmVVcCBqbqyttKq2EJGJhquHOtadWVgIGpuvK20mpYAgamGu5ca1p1JWBgqq68rbQaloCBqYY715pWXQkYmKorbyuthiVgYKrhzrWmVVcCBqbqyttKq2EJGJhquHOtadWVgIGpuvK20mpYAgamGu5ca1p1JWBgqq68rbQaloCBqYY715pWXQkYmKorbyuthiVgYKrhzrWmVVcCBqbqyttKq2EJGJhquHOtadWVgIGpuvK20mpYAv8HY2tF9Eiup6EAAAAASUVORK5CYII=;imageBorder=default;strokeWidth=2;" parent="1" vertex="1">
          <mxGeometry x="-220" y="921.15" width="211" height="203" as="geometry" />
        </mxCell>
        <mxCell id="RorEUMieY2BfaAc4E58H-90" style="edgeStyle=orthogonalEdgeStyle;rounded=0;orthogonalLoop=1;jettySize=auto;html=1;fontSize=11;fontColor=#3333FF;" parent="1" source="RorEUMieY2BfaAc4E58H-79" edge="1">
          <mxGeometry relative="1" as="geometry">
            <Array as="points">
              <mxPoint x="-250" y="1050" />
              <mxPoint x="-250" y="1050" />
            </Array>
            <mxPoint x="-220" y="1050" as="targetPoint" />
          </mxGeometry>
        </mxCell>
        <mxCell id="RorEUMieY2BfaAc4E58H-91" value="Hashes/File Signatures" style="edgeLabel;html=1;align=center;verticalAlign=middle;resizable=0;points=[];fontSize=11;fontColor=#3333FF;" parent="RorEUMieY2BfaAc4E58H-90" vertex="1" connectable="0">
          <mxGeometry x="-0.1448" y="3" relative="1" as="geometry">
            <mxPoint x="26" y="3" as="offset" />
          </mxGeometry>
        </mxCell>
        <mxCell id="RorEUMieY2BfaAc4E58H-92" style="edgeStyle=orthogonalEdgeStyle;rounded=0;orthogonalLoop=1;jettySize=auto;html=1;fontSize=11;fontColor=#3333FF;" parent="1" source="RorEUMieY2BfaAc4E58H-63" target="RorEUMieY2BfaAc4E58H-80" edge="1">
          <mxGeometry relative="1" as="geometry">
            <Array as="points">
              <mxPoint x="-540" y="958" />
            </Array>
          </mxGeometry>
        </mxCell>
        <mxCell id="RorEUMieY2BfaAc4E58H-63" value="Single S3 Bucket" style="sketch=0;outlineConnect=0;fontColor=#232F3E;gradientColor=none;fillColor=#3F8624;strokeColor=none;dashed=0;verticalLabelPosition=bottom;verticalAlign=top;align=center;html=1;fontSize=12;fontStyle=0;aspect=fixed;pointerEvents=1;shape=mxgraph.aws4.bucket_with_objects;container=1;" parent="1" vertex="1">
          <mxGeometry x="-575" y="980" width="75" height="78" as="geometry" />
        </mxCell>
        <mxCell id="RorEUMieY2BfaAc4E58H-93" value="&lt;font style=&quot;font-size: 15px;&quot;&gt;Pros: Other teams don&#39;t have much to change in code/process&lt;br&gt;&lt;br&gt;&amp;nbsp;Cons: Files may be missed&amp;nbsp;&lt;/font&gt;" style="text;html=1;align=center;verticalAlign=middle;resizable=0;points=[];autosize=1;strokeColor=none;fillColor=none;fontSize=11;fontColor=#3333FF;" parent="1" vertex="1">
          <mxGeometry x="-320" y="530" width="430" height="50" as="geometry" />
        </mxCell>
        <mxCell id="RorEUMieY2BfaAc4E58H-94" value="&lt;font style=&quot;font-size: 15px;&quot;&gt;Pros: Single entry point allowed. No missed files.&amp;nbsp;&lt;br&gt;&lt;br&gt;&lt;br&gt;Cons: Requires reconstruction of code/teams processes.&amp;nbsp;&lt;/font&gt;" style="text;html=1;align=center;verticalAlign=middle;resizable=0;points=[];autosize=1;strokeColor=none;fillColor=none;fontSize=11;fontColor=#3333FF;" parent="1" vertex="1">
          <mxGeometry x="-252.5" y="1260" width="400" height="70" as="geometry" />
        </mxCell>
        <mxCell id="RorEUMieY2BfaAc4E58H-96" style="edgeStyle=orthogonalEdgeStyle;rounded=0;orthogonalLoop=1;jettySize=auto;html=1;fontSize=15;fontColor=#3333FF;" parent="1" source="RorEUMieY2BfaAc4E58H-61" target="RorEUMieY2BfaAc4E58H-63" edge="1">
          <mxGeometry relative="1" as="geometry">
            <Array as="points">
              <mxPoint x="-537" y="1210" />
              <mxPoint x="-537" y="1210" />
            </Array>
          </mxGeometry>
        </mxCell>
        <mxCell id="RorEUMieY2BfaAc4E58H-97" style="edgeStyle=orthogonalEdgeStyle;rounded=0;orthogonalLoop=1;jettySize=auto;html=1;fontSize=15;fontColor=#3333FF;" parent="1" source="RorEUMieY2BfaAc4E58H-95" target="RorEUMieY2BfaAc4E58H-63" edge="1">
          <mxGeometry relative="1" as="geometry">
            <mxPoint x="-540" y="1070" as="targetPoint" />
            <Array as="points">
              <mxPoint x="-395" y="1190" />
              <mxPoint x="-540" y="1190" />
            </Array>
          </mxGeometry>
        </mxCell>
      </root>
    </mxGraphModel>
  </diagram>
</mxfile>
